<svg width="138" height="138" viewBox="0 0 138 138" fill="none" xmlns="http://www.w3.org/2000/svg">
<g id="academic coaching 1" clip-path="url(#clip0_357_126)">
<g id="Background Complete">
<path id="Vector" d="M46.3591 45.2148H25.8496V73.1828H46.3591V45.2148Z" fill="white"/>
<path id="Vector_2" d="M42.8373 46.9736H37.4805V69.8962H42.8373V46.9736Z" fill="#C7C7C7"/>
<path id="Vector_3" d="M47.4254 74.2501V44.1475H24.7827V74.2501H47.4254ZM25.8493 45.2148H46.3588V73.1794H25.8493V45.2148Z" fill="#EBEBEB"/>
<path id="Vector_4" d="M40.1997 51.3789H32.0088V67.0164H40.1997V51.3789Z" fill="#EBEBEB"/>
<path id="Vector_5" d="M23.9091 74.25H24.7827L24.7827 44.1473H23.9091L23.9091 74.25Z" fill="#DBDBDB"/>
<path id="Vector_6" d="M30.3869 7.69141H9.87744V35.6594H30.3869V7.69141Z" fill="white"/>
<path id="Vector_7" d="M28.1147 26.1279H16.8594V32.8607H28.1147V26.1279Z" fill="#EBEBEB"/>
<path id="Vector_8" d="M31.4533 36.7267V6.62402H8.81055V36.7267H31.4533ZM9.87716 7.69137H30.3867V35.6593H9.87716V7.69137Z" fill="#EBEBEB"/>
<path id="Vector_9" d="M24.2276 13.8555H16.0366V29.493H24.2276V13.8555Z" fill="#C7C7C7"/>
<path id="Vector_10" d="M7.93694 36.7236H8.81055L8.81055 6.62097H7.93694L7.93694 36.7236Z" fill="#DBDBDB"/>
<path id="Vector_11" d="M82.4273 141.446H141.995L143.912 103.621H80.5142L82.4273 141.446Z" fill="#EBEBEB"/>
<path id="Vector_12" d="M137.631 120.957H85.1699L84.4453 107.823H138.47L137.631 120.957ZM85.6101 120.489H137.194L137.976 108.291H84.9363L85.6101 120.489Z" fill="#DBDBDB"/>
<path id="Vector_13" d="M136.92 136.045H86.6771L86.0879 124.186H137.658L136.92 136.045ZM87.1206 135.577H136.483L137.16 124.657H86.5755L87.1206 135.577Z" fill="#DBDBDB"/>
<path id="Vector_14" d="M117.433 115.796H106.313L105.903 112.628H117.843L117.433 115.796ZM106.719 115.332H117.023L117.311 113.096H106.432L106.719 115.332Z" fill="#DBDBDB"/>
<path id="Vector_15" d="M117.433 131.701H106.313L105.903 128.533H117.843L117.433 131.701ZM106.719 131.237H117.023L117.311 129.001H106.432L106.719 131.237Z" fill="#DBDBDB"/>
</g>
<g id="Lamp">
<path id="Vector_16" d="M37.7344 42.9653H4.13428L4.89276 17.21H36.9793L37.7344 42.9653Z" fill="#F79D30"/>
<path id="Vector_17" opacity="0.3" d="M36.8708 42.9653H29.4079L28.6494 17.21H36.1123L36.8708 42.9653Z" fill="white"/>
<path id="Vector_18" d="M21.5217 153.845H20.3501L19.4663 50.498H22.4054L21.5217 153.845Z" fill="#F79D30"/>
<path id="Vector_19" opacity="0.3" d="M21.5217 153.845H20.3501L19.4663 50.498H22.4054L21.5217 153.845Z" fill="black"/>
<path id="Vector_20" opacity="0.2" d="M22.3953 51.318H19.4765L19.4663 50.498H22.4054L22.3953 51.318Z" fill="black"/>
<path id="Vector_21" d="M5.20772 153.845H4.03613L16.524 50.498H19.4665L5.20772 153.845Z" fill="#F79D30"/>
<path id="Vector_22" opacity="0.3" d="M5.20772 153.845H4.03613L16.524 50.498H19.4665L5.20772 153.845Z" fill="black"/>
<path id="Vector_23" opacity="0.2" d="M16.5241 50.498L16.3887 51.6162L19.3515 51.318L19.4666 50.498H16.5241Z" fill="black"/>
<path id="Vector_24" d="M36.6646 153.845H37.8361L25.3449 50.498H22.4058L36.6646 153.845Z" fill="#F79D30"/>
<path id="Vector_25" opacity="0.3" d="M36.6646 153.845H37.8361L25.3449 50.498H22.4058L36.6646 153.845Z" fill="black"/>
<path id="Vector_26" opacity="0.2" d="M25.3449 50.498L25.4803 51.6162L22.5175 51.318L22.4058 50.498H25.3449Z" fill="black"/>
<path id="Vector_27" d="M25.7205 47.418H16.1548V50.498H25.7205V47.418Z" fill="#F79D30"/>
<path id="Vector_28" opacity="0.3" d="M25.7205 47.418H16.1548V50.498H25.7205V47.418Z" fill="black"/>
<path id="Vector_29" d="M21.9113 42.9648H19.9609V47.4172H21.9113V42.9648Z" fill="#F79D30"/>
<path id="Vector_30" opacity="0.3" d="M21.9113 42.9648H19.9609V47.4172H21.9113V42.9648Z" fill="black"/>
<path id="Vector_31" opacity="0.2" d="M19.9609 42.9648H21.9113V44.083L19.9609 43.6527V42.9648Z" fill="black"/>
<path id="Vector_32" opacity="0.2" d="M21.9113 47.4175H19.9609V46.3027L21.9113 46.7297V47.4175Z" fill="black"/>
</g>
<g id="Window">
<path id="Vector_33" d="M147.004 8.96582H47.3784V11.5444H147.004V8.96582Z" fill="#210721"/>
<path id="Vector_34" d="M49.4032 10.2536C49.4059 10.3433 49.3818 10.4318 49.334 10.5077C49.2861 10.5836 49.2167 10.6435 49.1347 10.6797C49.0527 10.7159 48.9617 10.7268 48.8734 10.7109C48.7852 10.6951 48.7036 10.6533 48.6393 10.5908C48.5749 10.5283 48.5307 10.448 48.5121 10.3603C48.4936 10.2725 48.5017 10.1811 48.5354 10.098C48.5691 10.0148 48.6267 9.94358 48.7011 9.89342C48.7754 9.84326 48.8631 9.81645 48.9527 9.81641C49.0699 9.81635 49.1825 9.86198 49.2666 9.94361C49.3507 10.0252 49.3997 10.1365 49.4032 10.2536Z" fill="#C7C7C7"/>
<path id="Vector_35" d="M51.2421 10.2537C51.2448 10.3433 51.2207 10.4318 51.1728 10.5077C51.125 10.5836 51.0556 10.6435 50.9736 10.6797C50.8915 10.7159 50.8006 10.7268 50.7123 10.7109C50.624 10.6951 50.5425 10.6533 50.4782 10.5908C50.4138 10.5283 50.3695 10.4481 50.351 10.3603C50.3325 10.2725 50.3406 10.1811 50.3743 10.098C50.4079 10.0148 50.4656 9.9436 50.54 9.89344C50.6143 9.84328 50.7019 9.81646 50.7916 9.81642C50.909 9.8155 51.0221 9.86084 51.1064 9.94266C51.1907 10.0245 51.2394 10.1362 51.2421 10.2537Z" fill="white"/>
<path id="Vector_36" d="M53.0805 10.2538C53.0831 10.3439 53.0588 10.4327 53.0105 10.5088C52.9622 10.5849 52.8922 10.6448 52.8096 10.6807C52.7269 10.7166 52.6354 10.7269 52.5469 10.7102C52.4583 10.6935 52.3768 10.6507 52.3129 10.5872C52.2489 10.5237 52.2055 10.4425 52.1881 10.354C52.1708 10.2655 52.1803 10.1739 52.2156 10.0909C52.2508 10.0079 52.3101 9.93742 52.3858 9.88851C52.4615 9.8396 52.5501 9.81452 52.6401 9.81652C52.7558 9.81824 52.8663 9.86476 52.9484 9.94629C53.0305 10.0278 53.0778 10.138 53.0805 10.2538Z" fill="#F79D30"/>
<path id="Vector_37" d="M144.176 11.6904H47.5239V84.2296H144.176V11.6904Z" fill="white"/>
<path id="Vector_38" d="M144.173 84.2327C144.091 84.2666 47.4832 84.331 47.3985 84.3547C47.3139 84.3784 47.4324 11.741 47.3545 11.6935V11.5275H47.5204C47.5847 11.497 144.203 11.6156 144.271 11.5953C144.359 11.6529 144.112 84.1581 144.173 84.2327ZM144.173 84.2327C144.173 84.2598 143.959 11.2734 144.173 11.7918L47.5204 11.8494L47.6863 11.6834C47.6863 11.6529 47.7778 84.741 47.5238 84.1005L144.173 84.2225V84.2327Z" fill="#EBEBEB"/>
<path id="Vector_39" d="M147.004 75.5986H47.5239V84.2323H147.004V75.5986Z" fill="#F79D30"/>
<path id="Vector_40" d="M87.9278 78.123C89.3215 76.7283 89.3215 74.467 87.9278 73.0723C86.534 71.6776 84.2743 71.6776 82.8806 73.0723C81.4868 74.467 81.4868 76.7283 82.8805 78.123C84.2743 79.5177 86.534 79.5177 87.9278 78.123Z" fill="#210721"/>
<path id="Vector_41" d="M85.4075 77.5845C85.3859 77.5845 85.3652 77.5759 85.35 77.5607C85.3347 77.5454 85.3262 77.5247 85.3262 77.5032V76.5677C85.3262 76.5461 85.3347 76.5254 85.35 76.5102C85.3652 76.4949 85.3859 76.4863 85.4075 76.4863C85.429 76.4863 85.4497 76.4949 85.4649 76.5102C85.4802 76.5254 85.4888 76.5461 85.4888 76.5677V77.5201C85.4848 77.5386 85.4745 77.5552 85.4597 77.567C85.4449 77.5787 85.4264 77.5849 85.4075 77.5845Z" fill="white"/>
<path id="Vector_42" d="M85.9255 77.5847H84.886C84.8644 77.5847 84.8437 77.5761 84.8285 77.5608C84.8133 77.5456 84.8047 77.5249 84.8047 77.5033C84.8047 77.4817 84.8133 77.461 84.8285 77.4457C84.8437 77.4305 84.8644 77.4219 84.886 77.4219H85.9255C85.9362 77.4219 85.9467 77.424 85.9566 77.4281C85.9664 77.4322 85.9754 77.4382 85.9829 77.4457C85.9905 77.4533 85.9965 77.4623 86.0006 77.4721C86.0046 77.482 86.0068 77.4926 86.0068 77.5033C86.0068 77.514 86.0046 77.5246 86.0006 77.5344C85.9965 77.5443 85.9905 77.5533 85.9829 77.5608C85.9754 77.5684 85.9664 77.5744 85.9566 77.5785C85.9467 77.5826 85.9362 77.5847 85.9255 77.5847Z" fill="white"/>
<path id="Vector_43" d="M86.0743 74.2743V75.6568C86.0743 75.8365 86.0029 76.0089 85.8759 76.136C85.7489 76.2631 85.5766 76.3345 85.397 76.3345C85.2726 76.3335 85.1508 76.2982 85.045 76.2324C84.9393 76.1667 84.8537 76.073 84.7977 75.9618C84.7532 75.8699 84.7301 75.7691 84.73 75.667V74.2845C84.751 74.1244 84.8285 73.9771 84.9485 73.8692C85.0684 73.7612 85.223 73.6996 85.3843 73.6955C85.5456 73.6914 85.703 73.7451 85.8283 73.8469C85.9535 73.9486 86.0384 74.0918 86.0675 74.2506L86.0743 74.2743Z" fill="white"/>
<path id="Vector_44" d="M85.4039 76.6424C85.1462 76.6424 84.899 76.5399 84.7168 76.3575C84.5345 76.1752 84.4321 75.9278 84.4321 75.6699V75.0871C84.4321 75.0655 84.4407 75.0448 84.4559 75.0296C84.4712 75.0143 84.4918 75.0058 84.5134 75.0058C84.5349 75.0058 84.5556 75.0143 84.5709 75.0296C84.5861 75.0448 84.5947 75.0655 84.5947 75.0871V75.6699C84.595 75.7794 84.6174 75.8878 84.6604 75.9885C84.7035 76.0892 84.7663 76.1802 84.8452 76.2561C84.9238 76.3324 85.0173 76.3917 85.1199 76.4301C85.2224 76.4686 85.3318 76.4855 85.4412 76.4797C85.6526 76.4651 85.8504 76.3704 85.9945 76.2149C86.1385 76.0594 86.218 75.8548 86.2166 75.6428V75.0871C86.2141 75.0753 86.2143 75.063 86.2172 75.0513C86.2201 75.0396 86.2255 75.0286 86.2331 75.0192C86.2408 75.0099 86.2504 75.0023 86.2613 74.9971C86.2722 74.992 86.2841 74.9893 86.2962 74.9893C86.3082 74.9893 86.3202 74.992 86.3311 74.9971C86.342 75.0023 86.3516 75.0099 86.3592 75.0192C86.3668 75.0286 86.3723 75.0396 86.3751 75.0513C86.378 75.063 86.3782 75.0753 86.3757 75.0871V75.6428C86.3797 75.897 86.2853 76.1428 86.1125 76.3291C85.9396 76.5153 85.7015 76.6276 85.448 76.6424H85.4039Z" fill="white"/>
<path id="Vector_45" d="M109.117 79.1701C111.088 79.1701 112.686 77.5712 112.686 75.5987C112.686 73.6263 111.088 72.0273 109.117 72.0273C107.146 72.0273 105.548 73.6263 105.548 75.5987C105.548 77.5712 107.146 79.1701 109.117 79.1701Z" fill="#210721"/>
<path id="Vector_46" d="M111.196 75.1451V76.0531C111.196 76.0913 111.187 76.129 111.171 76.1634C111.154 76.1977 111.13 76.2278 111.1 76.2514C111.07 76.2749 111.035 76.2913 110.997 76.2992C110.96 76.3071 110.921 76.3064 110.884 76.2971L110.478 76.1921L110.271 76.1412V75.0603L110.813 74.9214L110.884 74.9011C110.921 74.8918 110.96 74.8911 110.997 74.899C111.035 74.9069 111.07 74.9233 111.1 74.9468C111.13 74.9704 111.154 75.0005 111.171 75.0348C111.187 75.0692 111.196 75.1069 111.196 75.1451Z" fill="white"/>
<path id="Vector_47" d="M109.601 74.4844H108.037C107.782 74.4844 107.576 74.6907 107.576 74.9452V76.2531C107.576 76.5076 107.782 76.7139 108.037 76.7139H109.601C109.855 76.7139 110.062 76.5076 110.062 76.2531V74.9452C110.062 74.6907 109.855 74.4844 109.601 74.4844Z" fill="white"/>
<path id="Vector_48" d="M98.7012 81.6381C102.036 80.8438 104.096 77.4946 103.302 74.1577C102.508 70.8207 99.1612 68.7595 95.8265 69.5539C92.4919 70.3482 90.4321 73.6973 91.2259 77.0343C92.0197 80.3713 95.3665 82.4325 98.7012 81.6381Z" fill="white"/>
<path id="Vector_49" d="M97.2621 81.1157C100.307 81.1157 102.775 78.6459 102.775 75.5993C102.775 72.5528 100.307 70.083 97.2621 70.083C94.2176 70.083 91.7495 72.5528 91.7495 75.5993C91.7495 78.6459 94.2176 81.1157 97.2621 81.1157Z" fill="#F79D30"/>
<path id="Vector_50" d="M100.384 75.6326C100.36 75.5438 100.331 75.4566 100.296 75.3717C100.251 75.2883 100.202 75.208 100.147 75.1311L99.9471 74.9278L99.6965 74.7482C99.3663 74.5385 98.9982 74.3957 98.613 74.328C97.7132 74.1485 96.7869 74.1485 95.8872 74.328C95.4969 74.3965 95.1241 74.5416 94.7901 74.755C94.7088 74.8092 94.6276 74.8702 94.5497 74.9278L94.3398 75.1379L94.2416 75.2802C94.1703 75.3882 94.1293 75.5134 94.123 75.6427H94.1535C94.7359 75.6427 95.3183 75.6427 95.9007 75.6427C95.9346 75.6427 95.9448 75.6224 95.9583 75.5987C96.0046 75.5016 96.0762 75.4189 96.1656 75.3592C96.255 75.2996 96.3589 75.2652 96.4662 75.2598C96.9837 75.226 97.5029 75.226 98.0204 75.2598C98.1283 75.2646 98.2329 75.2987 98.323 75.3584C98.413 75.4181 98.4852 75.5011 98.5317 75.5987C98.5377 75.6114 98.5474 75.622 98.5594 75.6293C98.5715 75.6365 98.5854 75.64 98.5994 75.6393H100.384V75.6326Z" fill="white"/>
<path id="Vector_51" d="M94.133 75.9985C94.133 75.9985 94.133 76.0222 94.133 76.0392C94.133 76.2425 94.133 76.4424 94.133 76.6457C94.1291 76.6755 94.1321 76.7059 94.1418 76.7344C94.1515 76.7629 94.1676 76.7887 94.1889 76.81C94.2101 76.8313 94.236 76.8474 94.2645 76.8571C94.2929 76.8668 94.3233 76.8698 94.3531 76.8659H95.6669C95.6973 76.8705 95.7283 76.8679 95.7576 76.8583C95.7868 76.8487 95.8133 76.8323 95.835 76.8106C95.8568 76.7888 95.8731 76.7623 95.8827 76.733C95.8923 76.7038 95.895 76.6727 95.8904 76.6423V76.1239C95.8904 76.0798 95.8904 76.0358 95.8904 75.9951L94.133 75.9985Z" fill="white"/>
<path id="Vector_52" d="M100.384 75.9922H98.6437C98.6437 76.2124 98.6437 76.4361 98.6437 76.6699C98.6414 76.6985 98.6456 76.7272 98.6558 76.754C98.6661 76.7808 98.6822 76.805 98.7029 76.8248C98.7237 76.8446 98.7486 76.8595 98.7758 76.8684C98.803 76.8774 98.8319 76.8802 98.8604 76.8766H100.188C100.217 76.8798 100.247 76.8764 100.274 76.8666C100.302 76.8569 100.327 76.841 100.348 76.8202C100.369 76.7994 100.385 76.7741 100.395 76.7464C100.404 76.7186 100.408 76.689 100.404 76.6597C100.404 76.453 100.404 76.2463 100.404 76.043L100.384 75.9922Z" fill="white"/>
</g>
<g id="Character 2">
<path id="Vector_53" d="M83.751 84.1543H104.619C105.527 80.5863 106.925 75.1005 108.141 70.3228C108.212 70.028 108.29 69.7366 108.361 69.452C108.404 69.2735 108.448 69.0973 108.493 68.9234C109.665 64.3287 110.589 60.6963 110.609 60.6116L110.643 60.4896C110.643 60.4456 110.66 60.4219 110.66 60.4219H90.513L83.751 84.1543Z" fill="#310A31"/>
<path id="Vector_54" d="M91.1665 60.4018V60.4798C91.1665 60.717 91.1665 60.9541 91.1665 61.1913C91.1665 61.7945 91.2038 62.401 91.2444 63.0041C91.4041 65.3649 91.7129 67.7133 92.1688 70.0351C92.7559 73.0982 93.5363 76.1211 94.5052 79.0855C94.5898 79.3397 94.6406 79.4854 94.6474 79.4989C94.6542 79.5125 95.3449 79.8378 96.2558 80.2952L96.3845 80.3596L99.564 81.942C100.011 82.1656 100.336 82.3249 100.424 82.3757H100.451C100.451 82.3757 100.485 83.0906 100.529 84.1411H122.295L121.8 79.9598C121.929 79.2448 122.498 77.4083 122.295 75.277C121.848 70.584 118.973 61.1676 118.712 60.6051C118.651 60.4696 118.614 60.3984 118.614 60.3984H91.1665V60.4018Z" fill="#310A31"/>
<path id="Vector_55" d="M100.431 82.3283V82.3791C100.431 82.9721 100.448 83.565 100.458 84.158H100.678C100.628 83.5616 100.59 82.9619 100.519 82.3689C100.519 82.3147 100.519 82.2639 100.519 82.2097C100.519 82.2007 100.516 82.1921 100.509 82.1857C100.503 82.1794 100.494 82.1758 100.485 82.1758C100.476 82.1758 100.468 82.1794 100.461 82.1857C100.455 82.1921 100.451 82.2007 100.451 82.2097C100.435 82.2469 100.431 82.2876 100.431 82.3283Z" fill="#37474F"/>
<path id="Vector_56" d="M103.042 83.4696C102.117 82.8258 101.119 82.2871 100.14 81.7348C99.1614 81.1824 98.1083 80.6234 97.0925 80.1388C95.0374 79.2297 92.923 78.461 90.7639 77.8381C90.7097 77.8211 90.6725 77.9092 90.7267 77.933C92.7888 78.8207 94.79 79.8372 96.8453 80.7487C97.8781 81.2062 98.9176 81.6467 99.9538 82.1041C100.99 82.5615 101.985 83.0766 103.038 83.5137C103.043 83.5123 103.047 83.5096 103.05 83.5058C103.053 83.5021 103.055 83.4976 103.055 83.4928C103.056 83.4881 103.054 83.4833 103.052 83.4792C103.05 83.475 103.046 83.4717 103.042 83.4696Z" fill="#37474F"/>
<path id="Vector_57" d="M97.3938 73.359C97.3701 72.3424 97.299 71.3259 97.2482 70.3094C97.1297 67.9375 97.0349 65.5182 96.8148 63.1361C96.8148 63.1164 96.8069 63.0974 96.7929 63.0834C96.779 63.0694 96.76 63.0616 96.7403 63.0616C96.7205 63.0616 96.7016 63.0694 96.6876 63.0834C96.6736 63.0974 96.6658 63.1164 96.6658 63.1361C96.6353 64.9828 96.7064 66.8363 96.7437 68.6864C96.764 69.608 96.7911 70.533 96.8181 71.4581C96.8452 72.3831 96.8994 73.2302 96.8181 74.1078C96.7674 74.7855 96.6218 76.0697 95.7515 76.1409C94.9355 76.2188 94.4851 75.3344 94.282 74.6872C93.8167 73.0103 93.524 71.2903 93.4084 69.5538C93.3102 68.5373 93.2086 67.5207 93.151 66.5042C93.0935 65.4877 93.0088 63.9629 93.063 62.9396C93.063 62.8752 92.9716 62.8786 92.9614 62.9396C92.819 64.1766 92.7703 65.4225 92.8158 66.6669C93.0156 76.0934 94.5088 76.6322 95.2876 76.7847C95.3837 76.803 95.4811 76.8132 95.5788 76.8152C95.5788 77.0286 95.6161 77.2455 95.633 77.4556C95.6567 77.7944 95.6974 78.1332 95.7414 78.4721C95.7889 78.7979 95.8568 79.1204 95.9445 79.4378C96.0157 79.7599 96.1296 80.071 96.2832 80.3628C96.2888 80.3727 96.2976 80.3803 96.3081 80.3846C96.3186 80.3889 96.3302 80.3895 96.3412 80.3864C96.3521 80.3833 96.3616 80.3766 96.3683 80.3674C96.375 80.3582 96.3784 80.3471 96.378 80.3357C96.3847 80.0152 96.3575 79.6949 96.2967 79.3802C96.2527 79.0413 96.2087 78.7262 96.1409 78.4043C96.0732 78.0824 96.0156 77.7707 95.9513 77.4556C95.9073 77.2421 95.8768 77.0252 95.8396 76.8084C96.093 76.7645 96.3315 76.6582 96.5337 76.499C96.7358 76.3399 96.8953 76.133 96.9976 75.8969C97.3223 75.0925 97.4579 74.2242 97.3938 73.359Z" fill="#37474F"/>
<path id="Vector_58" d="M116.416 71.5697C115.103 71.6612 113.806 71.8306 112.485 71.6747C111.242 71.5445 110.058 71.0757 109.062 70.3193C106.891 68.6251 105.943 65.8839 105.354 63.2985C105.351 63.2885 105.345 63.2797 105.337 63.2734C105.329 63.2671 105.319 63.2637 105.308 63.2637C105.298 63.2637 105.288 63.2671 105.28 63.2734C105.271 63.2797 105.265 63.2885 105.263 63.2985C105.51 65.5417 105.991 67.856 107.437 69.662C108.058 70.4554 108.845 71.104 109.742 71.5629C110.696 72.0066 111.739 72.2213 112.79 72.1897C114.022 72.1788 115.249 72.0138 116.44 71.6984C116.45 71.6895 116.457 71.6783 116.461 71.666C116.465 71.6536 116.466 71.6404 116.463 71.6276C116.461 71.6148 116.455 71.6028 116.447 71.5927C116.439 71.5825 116.428 71.5746 116.416 71.5697Z" fill="#37474F"/>
<path id="Vector_59" d="M87.7195 71.0483C88.1047 71.0628 88.4858 70.9651 88.8166 70.767C89.2841 70.3524 89.6236 69.8128 89.7952 69.2117C90.4284 67.4633 90.7399 64.8542 90.9465 62.4349C90.9465 62.3807 90.9736 62.3841 90.9702 62.4349C90.9123 64.4591 90.6743 66.4742 90.2591 68.4561C90.1092 69.1339 89.8819 69.7922 89.5819 70.418C89.4197 70.809 89.1092 71.1198 88.7184 71.2821C88.5515 71.3367 88.3751 71.3561 88.2002 71.3392C88.0254 71.3223 87.856 71.2694 87.7026 71.1838C87.6857 71.177 87.6924 71.0516 87.7195 71.0483Z" fill="#37474F"/>
<path id="Vector_60" d="M116.637 61.0518C117.344 64.9247 118.181 68.8451 118.953 72.7147C119.149 73.8701 119.495 75.012 119.427 76.1878C119.325 77.3732 119.139 78.5498 118.868 79.7084C118.99 80.4538 119.112 81.1993 119.247 81.9447C119.383 82.6902 119.501 83.4187 119.644 84.154C119.576 83.4085 119.491 82.6631 119.41 81.921C119.329 81.1789 119.244 80.4335 119.156 79.6914C119.488 78.5558 119.714 77.3921 119.833 76.2149C119.875 75.8054 119.866 75.3922 119.806 74.9849C119.572 73.3991 119.241 71.854 118.909 70.2987C118.232 67.1983 117.49 64.1149 116.65 61.0518H116.637Z" fill="#37474F"/>
<path id="Vector_61" d="M103.587 8.79947C107.125 11.3001 108.795 25.8906 108.795 25.8906C108.795 25.8906 112.546 30.3972 112.181 33.2401C112.097 34.0466 111.818 34.8207 111.369 35.4959C110.921 36.171 110.315 36.7272 109.604 37.1164L109.638 35.5679C109.638 35.5679 108.991 37.6586 105.872 38.9902C102.754 40.3219 96.9163 40.0881 94.4851 39.3291C93.046 38.8908 91.7451 38.0864 90.7096 36.9945L91.9184 39.0275C91.9184 39.0275 88.7423 39.4544 86.2975 36.415C83.8528 33.3756 88.4172 27.6289 88.6983 26.5141C88.9793 25.3993 88.3156 7.93881 96.5032 7.87782C96.5167 7.89815 101.152 7.07816 103.587 8.79947Z" fill="#310A31"/>
<path id="Vector_62" d="M110.738 36.7195C111.459 35.9605 112.157 35.0999 112.468 34.1545C112.812 33.1601 112.812 32.079 112.468 31.0846C112.038 29.8953 111.209 28.9228 110.4 27.974C109.59 27.0253 108.652 26.0799 107.833 25.0634C107.789 25.0092 107.87 24.9448 107.924 24.9855C108.774 25.6955 109.581 26.4547 110.342 27.2591C111.109 27.9815 111.791 28.7899 112.374 29.6683C112.908 30.4799 113.199 31.4275 113.213 32.3993C113.186 33.1944 112.966 33.9711 112.573 34.6628C112.11 35.4929 111.442 36.0893 110.796 36.767C110.748 36.8212 110.698 36.7636 110.738 36.7195Z" fill="#310A31"/>
<path id="Vector_63" d="M85.0547 33.077C85.5355 30.1257 87.7432 27.93 88.8539 25.2362C89.4566 23.7792 89.6496 15.3657 90.53 14.0544C90.5537 14.0171 90.6146 14.0544 90.5943 14.0951C89.8866 15.2742 89.785 23.4471 89.3482 24.7347C88.8675 26.0215 88.2607 27.2575 87.5367 28.4247C86.2771 30.5899 84.7669 33.1685 85.5795 35.7403C85.9554 36.9364 86.9069 38.1698 88.2274 38.3392C88.2782 38.3392 88.2613 38.4307 88.2105 38.4171C87.6821 38.3028 87.1826 38.082 86.7425 37.7679C86.3023 37.4539 85.9308 37.0534 85.6506 36.5908C85.0326 35.5306 84.8208 34.2818 85.0547 33.077Z" fill="#310A31"/>
<path id="Vector_64" d="M85.0648 33.8496C84.8008 32.8076 84.8647 31.7094 85.2476 30.7051C85.6472 29.7089 86.3989 28.916 87.1675 28.1909C88.0513 27.3574 88.9926 26.5509 89.4497 25.3921C89.4667 25.3446 89.5378 25.3921 89.5208 25.426C88.8098 27.3302 87.0388 28.4755 85.9925 30.1426C84.8006 32.0605 85.2104 34.4934 86.5512 36.2418C87.3947 37.2936 88.475 38.1308 89.7037 38.6848C89.724 38.6848 89.7037 38.7289 89.7037 38.7187C87.5942 37.7869 85.6133 36.1672 85.0648 33.8496Z" fill="#310A31"/>
<path id="Vector_65" d="M79.5356 51.1242C79.7845 51.4564 80.0997 51.7334 80.461 51.9375C80.8224 52.1416 81.2221 52.2685 81.635 52.3102C84.6283 52.6897 92.0539 48.0713 99.6828 35.1411C100.986 32.9284 102.503 28.3202 98.8193 29.2723C97.8882 29.5129 96.6184 30.1127 94.9287 31.2003C87.3033 36.1 80.03 40.9691 79.4509 41.5757C79.0514 42.006 77.4498 48.4033 79.5356 51.1242Z" fill="#F79D30"/>
<g id="Group" opacity="0.1">
<path id="Vector_66" d="M79.5356 51.1242C79.7845 51.4564 80.0997 51.7334 80.461 51.9375C80.8224 52.1416 81.2221 52.2685 81.635 52.3102C84.6283 52.6897 92.0539 48.0713 99.6828 35.1411C100.986 32.9284 102.503 28.3202 98.8193 29.2723C97.8882 29.5129 96.6184 30.1127 94.9287 31.2003C87.3033 36.1 80.03 40.9691 79.4509 41.5757C79.0514 42.006 77.4498 48.4033 79.5356 51.1242Z" fill="black"/>
</g>
<path id="Vector_67" opacity="0.1" d="M79.5356 51.1242C79.7846 51.4564 80.0997 51.7334 80.4611 51.9375C80.8224 52.1416 81.2222 52.2685 81.635 52.3102C84.6283 52.6897 92.054 48.0713 99.6828 35.1411C100.986 32.9284 102.503 28.3202 98.8194 29.2723L79.5356 51.1242Z" fill="black"/>
<path id="Vector_68" d="M90.9534 53.3538L90.5132 60.4017H118.255C117.511 58.0186 116.294 55.8104 114.676 53.9095C114.676 53.9095 112.431 38.3228 107.061 30.8988C103.797 26.3854 99.5303 26.3956 96.4118 30.9225C95.8361 31.7594 88.5527 42.6464 88.0244 46.6515C87.7637 48.6303 90.9534 53.3538 90.9534 53.3538Z" fill="white"/>
<path id="Vector_69" d="M94.8981 50.5511C96.1132 50.7048 97.3121 50.9667 98.4806 51.3338C99.0664 51.5269 99.6386 51.754 100.208 51.9945C100.492 52.1131 100.78 52.2216 101.068 52.3334C101.363 52.4537 101.674 52.5302 101.992 52.5604C102.019 52.5604 102.016 52.6146 101.992 52.6146C101.695 52.627 101.397 52.6157 101.101 52.5807C100.814 52.5323 100.531 52.4621 100.255 52.3706C99.659 52.1809 99.0732 51.9573 98.484 51.7607C97.2887 51.3643 96.0968 50.9678 94.8846 50.6764C94.8236 50.6595 94.8406 50.5443 94.8981 50.5511Z" fill="#310A31"/>
<path id="Vector_70" d="M91.8878 51.8326C92.886 51.7204 93.8906 51.6773 94.8947 51.7039C95.3956 51.7209 95.8952 51.765 96.3913 51.836C96.6284 51.8665 96.8688 51.9038 97.1058 51.9445C97.3428 51.9851 97.6205 52.08 97.8846 52.1207C97.9117 52.1207 97.9083 52.1749 97.8846 52.1715C97.6374 52.1444 97.3835 52.1715 97.1363 52.1545L96.3879 52.1173C95.8868 52.0936 95.389 52.08 94.8879 52.0495C93.889 51.9919 92.8901 51.9479 91.8878 51.9343C91.8303 51.9241 91.837 51.8326 91.8878 51.8326Z" fill="#310A31"/>
<path id="Vector_71" d="M103.648 27.9375C103.648 27.9375 98.7788 44.6322 98.7652 47.1193C98.7517 49.6064 100.638 74.1419 100.638 74.1419L123.592 72.9695C123.592 72.9695 120.372 61.7877 115.35 54.1808C115.35 54.1808 111.812 39.719 110.627 36.6661C107.403 28.3475 103.648 27.9375 103.648 27.9375Z" fill="#F79D30"/>
<path id="Vector_72" opacity="0.1" d="M103.648 27.9375C103.648 27.9375 98.7788 44.6322 98.7652 47.1193C98.7517 49.6064 100.638 74.1419 100.638 74.1419L123.592 72.9695C123.592 72.9695 120.372 61.7877 115.35 54.1808C115.35 54.1808 111.812 39.719 110.627 36.6661C107.403 28.3475 103.648 27.9375 103.648 27.9375Z" fill="black"/>
<path id="Vector_73" d="M99.7062 62.9432C99.7062 62.9432 98.8597 49.8741 98.7479 47.5361C98.6362 45.1981 103.634 27.9375 103.634 27.9375L105.066 37.7639L101.169 40.8914L102.781 44.2798L100.383 50.8466L99.7062 62.9432Z" fill="#F79D30"/>
<path id="Vector_74" d="M97.9457 29.1471C98.1218 29.0455 92.4806 41.3217 92.2842 46.5568C92.0878 51.7919 92.1759 73.1389 92.1759 73.1389L86.9985 71.6209L90.6826 53.4624C90.6826 53.4624 87.8078 49.9147 87.8349 46.6415C87.8552 42.8058 96.7945 29.8079 97.9457 29.1471Z" fill="#F79D30"/>
<path id="Vector_75" opacity="0.1" d="M97.9457 29.1471C98.1218 29.0455 92.4806 41.3217 92.2842 46.5568C92.0878 51.7919 92.1759 73.1389 92.1759 73.1389L86.9985 71.6209L90.6826 53.4624C90.6826 53.4624 87.8078 49.9147 87.8349 46.6415C87.8552 42.8058 96.7945 29.8079 97.9457 29.1471Z" fill="black"/>
<path id="Vector_76" d="M92.1553 62.1191C92.1553 62.1191 91.7185 49.7243 92.582 45.2753C94.0888 37.5057 97.9455 29.1465 97.9455 29.1465L91.5966 38.2579L92.4838 39.9521L89.9307 43.1847L92.1553 62.1191Z" fill="#F79D30"/>
<path id="Vector_77" d="M102.723 28.0589C102.7 28.6315 100.756 33.0026 98.7651 33.0195C96.9637 33.0195 97.3666 29.6108 97.3666 29.6108L95.335 24.867L100.776 19.7539C100.776 19.7539 102.73 27.8183 102.723 28.0589Z" fill="#D3766A"/>
<path id="Vector_78" d="M101.626 23.3192C100.895 27.0057 98.4907 28.5814 97.2514 29.3471L95.3213 24.8846L100.763 19.7715C100.763 19.7715 101.203 21.6317 101.626 23.3192Z" fill="#310A31"/>
<path id="Vector_79" d="M88.0074 18.1308C87.7738 26.5646 92.7953 27.6556 94.6136 27.7031C96.2627 27.7471 101.887 27.6861 102.991 19.3201C104.095 10.9541 100.245 8.18242 96.4794 7.88424C92.714 7.58606 88.241 9.69704 88.0074 18.1308Z" fill="#D3766A"/>
<path id="Vector_80" d="M102.798 19.388C101.443 19.6963 100.709 16.8805 100.709 16.8805C100.709 16.8805 97.9355 17.3007 96.4253 13.4447C96.6833 14.6292 97.2811 15.7126 98.1455 16.562C98.1455 16.562 93.1781 16.7721 90.5098 12.9839C90.5098 12.9839 91.6408 14.9457 92.5212 15.5726C92.5212 15.5726 90.3845 15.3083 89.1351 13.7903C89.1351 13.7903 88.6306 16.2808 88.0685 17.033C88.0685 17.033 86.7953 8.12487 94.8576 7.85718C94.8576 7.85718 100.336 7.2676 102.703 10.9339C105.07 14.6001 102.798 19.388 102.798 19.388Z" fill="#310A31"/>
<path id="Vector_81" d="M101.098 19.4794C101.098 19.4794 102.551 16.6162 103.827 17.1075C105.104 17.5988 104.264 21.5666 102.95 22.2782C102.788 22.3817 102.606 22.4512 102.416 22.4826C102.226 22.5139 102.032 22.5064 101.845 22.4604C101.658 22.4145 101.482 22.3312 101.328 22.2154C101.174 22.0996 101.045 21.9539 100.949 21.7869L101.098 19.4794Z" fill="#D3766A"/>
<path id="Vector_82" d="M103.56 18.2324C103.58 18.2324 103.59 18.2561 103.56 18.2663C102.642 18.7983 102.259 19.7742 102.032 20.7636C102.27 20.3603 102.635 20.1096 103.167 20.3841C103.194 20.3841 103.167 20.4417 103.15 20.4417C102.971 20.4099 102.787 20.435 102.623 20.5133C102.459 20.5917 102.323 20.7195 102.236 20.8788C102.093 21.1448 101.98 21.4254 101.897 21.7157C101.863 21.8106 101.701 21.7869 101.718 21.6818C101.718 21.6818 101.718 21.6818 101.718 21.6581C101.525 20.4179 102.242 18.5442 103.56 18.2324Z" fill="#310A31"/>
<path id="Vector_83" d="M101.616 22.5804C101.639 22.7453 101.726 22.8945 101.858 22.9952C101.99 23.096 102.157 23.1399 102.322 23.1175C102.487 23.095 102.636 23.0079 102.737 22.8754C102.837 22.743 102.881 22.5759 102.859 22.411C102.836 22.2461 102.749 22.0968 102.617 21.9961C102.485 21.8954 102.318 21.8514 102.153 21.8739C101.988 21.8964 101.839 21.9834 101.738 22.1159C101.638 22.2484 101.594 22.4155 101.616 22.5804Z" fill="white"/>
<path id="Vector_84" d="M89.4431 17.843C89.6367 17.8181 89.8289 17.783 90.0188 17.7379C90.2267 17.7275 90.4254 17.6489 90.5842 17.5143C90.6251 17.4614 90.6473 17.3965 90.6473 17.3296C90.6473 17.2628 90.6251 17.1978 90.5842 17.1449C90.49 17.0503 90.3721 16.9828 90.2428 16.9494C90.1135 16.916 89.9777 16.918 89.8494 16.9552C89.5772 16.9866 89.3269 17.1197 89.1485 17.3279C89.117 17.3797 89.1 17.439 89.0992 17.4996C89.0983 17.5602 89.1138 17.6199 89.1438 17.6725C89.1739 17.7251 89.2176 17.7687 89.2702 17.7986C89.3228 17.8286 89.3826 17.8439 89.4431 17.843Z" fill="#310A31"/>
<path id="Vector_85" d="M95.4365 18.7513C95.2447 18.7173 95.0548 18.6732 94.8676 18.6191C94.6595 18.6007 94.4638 18.5123 94.3123 18.3684C94.2722 18.3158 94.2505 18.2515 94.2505 18.1854C94.2505 18.1193 94.2722 18.055 94.3123 18.0024C94.4103 17.9119 94.5309 17.8493 94.6613 17.8213C94.7918 17.7933 94.9273 17.8008 95.0539 17.8432C95.3222 17.8899 95.5636 18.0348 95.7311 18.2498C95.7592 18.3012 95.7735 18.359 95.7726 18.4176C95.7717 18.4762 95.7556 18.5336 95.7259 18.5841C95.6963 18.6347 95.654 18.6766 95.6032 18.7059C95.5525 18.7352 95.4951 18.7508 95.4365 18.7513Z" fill="#310A31"/>
<path id="Vector_86" d="M94.1598 20.1172C94.1598 20.0935 94.2005 20.1477 94.2005 20.1714C94.1564 20.7474 94.2005 21.415 94.7118 21.6318C94.7287 21.6318 94.7118 21.6657 94.7118 21.6623C94.0752 21.5437 94.0244 20.6593 94.1598 20.1172Z" fill="#310A31"/>
<path id="Vector_87" d="M94.7019 19.5374C95.6331 19.5103 95.6195 21.3773 94.7561 21.401C93.8926 21.4247 93.9197 19.5611 94.7019 19.5374Z" fill="#310A31"/>
<path id="Vector_88" d="M95.0675 19.6425C95.23 19.7475 95.3892 19.9373 95.5856 19.9576C95.782 19.9779 95.9851 19.7882 96.1341 19.6188C96.1511 19.5984 96.168 19.6188 96.168 19.6391C96.168 19.9983 96.0292 20.3642 95.6465 20.415C95.2639 20.4659 95.0472 20.1406 94.9693 19.7814C94.9456 19.6933 95.0032 19.5951 95.0675 19.6425Z" fill="#310A31"/>
<path id="Vector_89" d="M90.7907 20.0901C90.7907 20.0664 90.7467 20.1172 90.7467 20.141C90.7941 20.7204 90.7467 21.3879 90.2388 21.6048C90.2388 21.6048 90.2388 21.642 90.2388 21.6386C90.8787 21.5167 90.9261 20.6289 90.7907 20.0901Z" fill="#310A31"/>
<path id="Vector_90" d="M90.2456 19.51C89.311 19.4863 89.3314 21.3533 90.1948 21.377C91.0583 21.4007 91.0244 19.5303 90.2456 19.51Z" fill="#310A31"/>
<path id="Vector_91" d="M89.8866 19.6121C89.7241 19.7206 89.548 19.9103 89.3685 19.9306C89.1891 19.951 88.969 19.7612 88.8166 19.5918C88.8166 19.5918 88.7861 19.5918 88.7861 19.6155C88.7861 19.9544 88.9283 20.3372 89.311 20.3881C89.6936 20.4389 89.9069 20.1136 89.9882 19.7511C90.0017 19.6697 89.9442 19.5715 89.8866 19.6121Z" fill="#310A31"/>
<path id="Vector_92" d="M94.3972 24.6263C94.2821 24.7822 94.1737 24.9855 93.9672 25.0363C93.7538 25.0652 93.5367 25.0479 93.3306 24.9855C93.3262 24.9842 93.3215 24.9843 93.3173 24.9859C93.313 24.9876 93.3094 24.9906 93.3071 24.9945C93.3048 24.9984 93.3038 25.003 93.3044 25.0075C93.3049 25.012 93.307 25.0162 93.3103 25.0194C93.4092 25.119 93.5331 25.19 93.6689 25.2252C93.8047 25.2604 93.9475 25.2583 94.0823 25.2193C94.1947 25.1714 94.2902 25.0909 94.3565 24.9883C94.4229 24.8857 94.4571 24.7655 94.4547 24.6433C94.4581 24.6094 94.4141 24.6026 94.3972 24.6263Z" fill="#310A31"/>
<path id="Vector_93" d="M91.6578 22.638C91.6578 22.638 91.6205 23.5088 91.6578 23.9154C91.6578 23.9527 91.7593 23.9629 91.8982 23.9561H91.9185C92.2726 23.9862 92.6283 23.9184 92.9465 23.76C93.2648 23.6017 93.5335 23.3589 93.7233 23.0581C93.747 23.0141 93.6894 22.9802 93.6555 23.0073C93.1728 23.4128 92.5715 23.6506 91.9422 23.685C91.9049 23.5766 92.0573 22.1941 91.993 22.1975C91.6806 22.2538 91.3775 22.353 91.0923 22.4923C91.116 20.6761 91.4309 18.8768 91.4309 17.0708C91.4309 17.0564 91.4252 17.0426 91.415 17.0325C91.4048 17.0223 91.3911 17.0166 91.3767 17.0166C91.3623 17.0166 91.3486 17.0223 91.3384 17.0325C91.3282 17.0426 91.3225 17.0564 91.3225 17.0708C90.8586 18.9311 90.7841 21.0251 90.7096 22.8989C90.6961 23.1056 91.502 22.7227 91.6578 22.638Z" fill="#310A31"/>
<path id="Vector_94" d="M92.0537 23.7697C92.3026 24.0605 92.6221 24.2822 92.9815 24.4135C93.1796 24.478 93.3929 24.478 93.591 24.4135C94.0244 24.2746 94.0143 23.8714 93.9296 23.5292C93.8749 23.3479 93.7988 23.1739 93.7027 23.0107C93.2493 23.4351 92.6708 23.7013 92.0537 23.7697Z" fill="#310A31"/>
<path id="Vector_95" d="M92.9814 24.4139C93.1796 24.4784 93.393 24.4784 93.5911 24.4139C94.0247 24.275 94.0145 23.8716 93.9298 23.5293C93.695 23.5475 93.4733 23.6449 93.301 23.8056C93.1287 23.9663 93.016 24.1808 92.9814 24.4139Z" fill="#FF98B9"/>
<path id="Vector_96" d="M96.9973 29.2724L98.433 32.0543L102.361 26.9717L104.108 28.7235C104.108 28.7235 99.9364 36.2458 99.9026 35.9069L98.3179 32.7896L96.1948 35.0395L96.3032 30.3703L96.9973 29.2724Z" fill="white"/>
<path id="Vector_97" d="M96.2389 30.3869C96.2389 30.3564 96.2965 30.3394 96.2999 30.3869C96.3845 31.3221 96.2999 33.921 96.3168 34.7545C96.4048 34.6563 98.2875 32.7723 98.3078 32.8028C98.6464 33.2941 99.8079 35.5678 99.8891 35.7744C100.566 34.5885 103.157 30.2717 103.952 29.1467C103.956 29.1395 103.963 29.1342 103.971 29.132C103.979 29.1298 103.988 29.1308 103.995 29.1349C104.002 29.1389 104.007 29.1456 104.009 29.1536C104.012 29.1615 104.011 29.17 104.007 29.1772C103.414 30.4275 99.9873 36.2353 99.9433 36.2217C99.3344 35.1518 98.7806 34.0514 98.2841 32.9248C97.9692 33.3314 96.073 35.4525 96.0629 35.317C96.0087 34.3852 96.1577 31.295 96.2389 30.3869Z" fill="#310A31"/>
<path id="Vector_98" d="M81.2623 51.6899C77.7103 50.2363 74.7035 48.2202 67.718 35.4696C66.7022 33.6229 80.7646 28.5165 81.777 30.5293C83.0502 33.0638 84.8245 38.963 85.0615 39.7424C86.995 46.3193 83.6698 52.6759 81.2623 51.6899Z" fill="#D3766A"/>
<path id="Vector_99" d="M82.7558 31.3125C82.7558 31.3125 78.1981 37.5201 75.5265 38.3265C73.3154 39.0042 68.2803 37.4354 68.2803 37.4354C68.2803 37.4354 69.1031 38.8382 70.6946 41.4608C74.0129 46.9331 79.0108 52.6629 81.6316 52.3037C85.5154 51.7785 86.8021 43.0533 85.5865 39.4006C84.3709 35.7479 82.7558 31.3125 82.7558 31.3125Z" fill="#F79D30"/>
<path id="Vector_100" opacity="0.1" d="M82.7558 31.3125C82.7558 31.3125 78.1981 37.5201 75.5265 38.3265C73.3154 39.0042 68.2803 37.4354 68.2803 37.4354C68.2803 37.4354 69.1031 38.8382 70.6946 41.4608C74.0129 46.9331 79.0108 52.6629 81.6316 52.3037C85.5154 51.7785 86.8021 43.0533 85.5865 39.4006C84.3709 35.7479 82.7558 31.3125 82.7558 31.3125Z" fill="black"/>
<path id="Vector_101" d="M86.0501 43.9169C86.0501 43.1749 86.4124 41.1046 85.637 38.4955C84.9597 36.2286 83.5884 32.6843 82.7757 31.3391C82.7554 31.3053 82.7215 31.3154 82.7385 31.3391C83.2836 32.6674 84.4958 36.0219 85.2408 38.4311C85.7488 40.2004 86.0075 42.032 86.0094 43.8729C86.0094 43.9407 86.0501 43.9508 86.0501 43.9169Z" fill="#310A31"/>
<path id="Vector_102" d="M66.4619 27.3168C66.0962 29.9496 66.8784 34.2257 67.7317 35.4693C68.585 36.7128 78.3302 36.8518 79.0141 35.4693C79.6981 34.0868 80.7851 24.3858 79.39 22.0613C77.9949 19.7369 66.8412 24.5891 66.4619 27.3168Z" fill="#D3766A"/>
<path id="Vector_103" d="M79.1462 25.4941C79.1462 25.4941 79.688 28.1709 78.3403 28.9435C76.9927 29.716 76.1665 27.6322 76.1021 27.4865C76.1292 27.6288 76.5626 30.0989 75.1269 30.7359C73.6337 31.4136 73.1156 29.1874 73.0953 29.0417C73.0784 29.184 72.8346 31.0748 71.6325 31.295C69.5704 31.6983 70.0613 26.8901 68.9236 25.6127C68.9236 25.6127 66.5534 27.2798 66.4653 27.3069C66.4653 27.3069 66.8412 22.719 68.646 21.2924C68.9068 21.0832 69.231 20.9691 69.5653 20.9691C69.8996 20.9691 70.2238 21.0832 70.4846 21.2924C70.4846 21.2924 70.4406 19.7981 71.558 19.2594C72.1302 18.9849 73.0784 19.6558 73.0784 19.6558C73.0784 19.6558 73.0953 18.4597 74.1145 18.0463C74.9305 17.7075 75.9023 18.5343 75.9023 18.5343C75.9023 18.5343 74.9881 12.4182 76.5152 11.9336C79.1598 11.1035 80.8562 23.7558 81.3472 24.6944C81.6248 25.2332 79.1462 25.4941 79.1462 25.4941Z" fill="#D3766A"/>
<path id="Vector_104" d="M75.8987 18.534C75.8951 18.5299 75.8933 18.5246 75.8936 18.5192C75.8939 18.5138 75.8964 18.5087 75.9004 18.5052C75.9044 18.5016 75.9097 18.4997 75.9151 18.5C75.9205 18.5004 75.9256 18.5028 75.9292 18.5068C77.7099 20.4779 78.8495 22.9442 79.1967 25.5785C79.1967 25.6632 79.0241 26.0122 79.0071 25.9173C78.6143 23.5861 77.3581 20.811 75.8987 18.534Z" fill="#310A31"/>
<path id="Vector_105" d="M73.0577 19.6798C73.0408 19.6561 73.0814 19.629 73.1018 19.6527C74.849 21.6214 76.2237 24.6032 76.1899 27.5884C76.1899 27.69 76.0849 27.7815 76.0747 27.6629C75.9495 25.6773 74.3885 21.723 73.0577 19.6798Z" fill="#310A31"/>
<path id="Vector_106" d="M72.9019 29.2046C72.8274 26.3414 71.8421 23.7832 70.4538 21.3164C70.4368 21.2825 70.4842 21.2622 70.5079 21.2825C71.5238 22.299 72.2348 23.9933 72.6852 25.3249C73.1276 26.5671 73.2374 27.9035 73.0035 29.2012C72.9933 29.2521 72.9053 29.2656 72.9019 29.2046Z" fill="#310A31"/>
<path id="Vector_107" d="M79.1869 25.5176C79.1869 25.6192 78.9329 25.4532 78.9397 25.5515C79.0108 26.6493 79.0447 28.6214 78.1643 28.8823C77.46 29.089 76.6913 28.2859 76.5187 27.8657L76.0819 26.7984L76.1191 27.9538C76.1419 28.4665 76.0801 28.9793 75.9362 29.4719C75.8825 29.7037 75.7805 29.9215 75.637 30.1113C75.4935 30.301 75.3116 30.4584 75.1033 30.5731C74.9085 30.6768 74.6841 30.7108 74.4674 30.6695C74.2506 30.6282 74.0545 30.5141 73.9114 30.3461C73.6001 29.9606 73.3915 29.5024 73.3053 29.0144L73.0242 27.6591L72.8549 29.0144C72.8074 29.391 72.7118 29.76 72.5705 30.1123C72.4514 30.4512 72.2346 30.7472 71.9474 30.9628C71.814 31.054 71.6579 31.1064 71.4965 31.1142C71.3351 31.122 71.1748 31.0848 71.0332 31.0068C70.7442 30.7822 70.5246 30.4803 70.4 30.136C70.1148 29.3971 69.8884 28.6369 69.7228 27.8624C69.628 27.4727 69.5332 27.083 69.418 26.6967C69.3269 26.303 69.1525 25.9332 68.9067 25.6125C69.1129 25.953 69.2509 26.3305 69.3131 26.7239C69.3943 27.1135 69.4587 27.5066 69.5264 27.903C69.6349 28.7097 69.8209 29.504 70.0817 30.2749C70.2141 30.6946 70.4674 31.0659 70.8097 31.3423C71.011 31.4742 71.2463 31.5445 71.4869 31.5445C71.7275 31.5445 71.9629 31.4742 72.1642 31.3423C72.5289 31.0844 72.8083 30.7233 72.9667 30.3054C73.1322 29.9165 73.2461 29.5075 73.3053 29.089H72.8515C72.9434 29.6675 73.185 30.2119 73.5524 30.668C73.7631 30.9149 74.0526 31.0813 74.3719 31.139C74.6876 31.1829 75.0093 31.1322 75.2963 30.9933C75.5605 30.8487 75.7912 30.6499 75.9733 30.4099C76.1553 30.1699 76.2846 29.8941 76.3527 29.6006C76.5022 29.056 76.5616 28.4906 76.5288 27.9267L76.1293 28.0115C76.3697 28.5434 77.1282 29.5396 78.2625 29.3668C79.7083 28.889 79.2986 26.036 79.1869 25.5176Z" fill="#310A31"/>
<path id="Vector_108" d="M79.014 35.463C79.014 35.463 83.9171 30.4855 83.9475 26.8565C83.9475 24.8234 79.0919 21.8213 77.3108 20.842C74.9033 19.5172 74.5681 20.6625 75.3164 22.3228C76.2103 24.3118 78.1269 25.9755 78.2725 26.0907C78.2725 26.0907 74.3615 27.8832 73.9721 30.9971C73.5827 34.1111 79.014 35.463 79.014 35.463Z" fill="#D3766A"/>
<path id="Vector_109" d="M74.0703 30.4856C74.387 29.4727 74.9251 28.5431 75.6455 27.7641C76.3658 26.9852 77.2505 26.3766 78.2352 25.9824L78.2047 26.1755C76.9586 25.159 74.4496 22.3805 74.8864 20.6795C75.4755 19.4631 77.2024 20.605 77.9846 21.0184C79.8811 22.0857 81.6182 23.4145 83.145 24.9659C85.6676 27.4767 82.268 31.5089 80.6224 33.6199C81.9463 31.7291 84.2082 28.8761 83.7376 26.4669C83.5909 25.9675 83.3126 25.5169 82.9317 25.1624C82.1869 24.3947 81.3781 23.6919 80.514 23.0616C79.6446 22.4284 78.7402 21.8447 77.8052 21.3131C77.1279 20.937 76.4507 20.4627 75.6618 20.4593C75.1031 20.4593 75.0591 21.0489 75.1674 21.4758C75.386 22.2367 75.7442 22.9503 76.2239 23.58C76.8196 24.4662 77.5276 25.2714 78.33 25.9756L78.479 26.101L78.2995 26.1687C77.327 26.5436 76.4462 27.123 75.7166 27.8677C74.987 28.6124 74.4256 29.5051 74.0703 30.4856Z" fill="#263238"/>
<path id="Vector_110" d="M77.1518 35.8797C75.7635 36.6387 74.1348 35.9779 72.6821 35.8797C71.541 35.9542 70.1053 35.9915 69.3638 34.958C70.2679 35.7983 71.5478 35.6357 72.672 35.5476C74.172 35.6086 75.6551 36.3608 77.1518 35.8864V35.8797Z" fill="#263238"/>
<path id="Vector_111" d="M108.706 31.5966C116.02 40.4945 124.502 58.1922 122.298 61.5027C119.843 65.1927 109.77 53.1299 109.861 52.4624C109.939 51.9609 106.942 41.1654 104.636 33.3043C102.33 25.4432 106.898 29.3941 108.706 31.5966Z" fill="#EB9481"/>
<path id="Vector_112" d="M109.783 52.4689C109.543 51.3236 105.425 37.0719 104.284 32.5823C103.143 28.0926 104.687 26.8728 108.71 31.2574C112.732 35.642 120.967 49.1516 122.518 56.4164C124.011 63.4168 120.669 63.776 116.332 60.2182C112.78 57.3075 109.783 52.4689 109.783 52.4689Z" fill="#F79D30"/>
<g id="Group_2" opacity="0.1">
<path id="Vector_113" d="M109.783 52.4689C109.543 51.3236 105.425 37.0719 104.284 32.5823C103.143 28.0926 104.687 26.8728 108.71 31.2574C112.732 35.642 120.967 49.1516 122.518 56.4164C124.011 63.4168 120.669 63.776 116.332 60.2182C112.78 57.3075 109.783 52.4689 109.783 52.4689Z" fill="black"/>
</g>
<path id="Vector_114" d="M110.308 54.3129C109.969 52.9575 109.631 51.6259 109.265 50.284C108.899 48.9422 108.534 47.6106 108.168 46.2722L107.027 42.2738L106.438 40.2781C106.234 39.6004 106.038 38.9498 105.832 38.2891C105.994 38.9667 106.17 39.6444 106.343 40.3052L106.874 42.3179L107.972 46.3264C108.354 47.6614 108.723 48.9964 109.113 50.3281C109.502 51.6597 109.895 52.988 110.308 54.3129Z" fill="#310A31"/>
<path id="Vector_115" d="M106.644 41.4059C106.515 41.0636 106.363 40.7307 106.187 40.4098C106.102 40.2471 106.014 40.0879 105.92 39.932C105.825 39.7761 105.727 39.6236 105.628 39.4678C105.732 39.8215 105.875 40.1625 106.055 40.4843C106.225 40.8079 106.422 41.1162 106.644 41.4059Z" fill="#310A31"/>
<path id="Vector_116" d="M70.7959 46.8985L81.0964 38.3936L90.6722 56.2098L80.2803 63.4915L70.7959 46.8985Z" fill="#37474F"/>
<path id="Vector_117" d="M72.1943 46.7094L80.9609 39.5938L81.435 40.2342L88.8302 53.9369C88.1009 54.7951 87.4387 55.7082 86.8493 56.668C86.1145 57.9488 84.0185 62.0488 81.1268 62.557L72.1943 46.7094Z" fill="white"/>
<path id="Vector_118" d="M72.7497 47.7971C72.7497 47.7971 75.1402 46.4248 76.2746 45.0864C77.4089 43.7479 78.4857 42.2604 79.4473 41.5726C80.409 40.8847 81.3808 40.1596 81.3808 40.1596L80.9609 39.5938L72.1943 46.7094L72.7497 47.7971Z" fill="#EBEBEB"/>
<path id="Vector_119" d="M96.4827 62.6347L79.2509 64.1053L70.7959 46.8989L88.6473 44.0459L96.4827 62.6347Z" fill="#210721"/>
<path id="Vector_120" d="M122.017 61.8892C119.688 64.2204 115.056 64.0307 101.995 64.2611C100.187 64.2916 96.1849 51.314 98.1116 51.1818C100.543 51.0158 110.004 50.8904 110.698 50.9717C116.542 51.6291 123.602 60.3034 122.017 61.8892Z" fill="#D3766A"/>
<path id="Vector_121" d="M102.469 51.7105C102.469 51.7105 97.6612 50.572 94.4851 49.9756C92.7107 49.6368 89.6226 49.342 88.2073 49.6944C86.091 50.2196 77.5817 53.7605 78.3876 55.8579C79.1258 57.7419 86.0503 53.7605 86.0503 53.7605C86.0503 53.7605 78.7093 57.1489 80.0163 59.2667C81.3234 61.3844 88.5492 55.8376 88.5492 55.8376C88.5492 55.8376 81.0829 59.4971 82.776 61.459C84.0559 62.9397 90.8823 58.2908 90.8823 58.2908C90.8823 58.2908 84.4859 61.4827 85.7354 63.0617C87.1169 64.8067 93.6859 60.9134 93.6859 60.9134C97.5359 64.3933 100.797 64.4747 103.116 64.2578C103.685 64.2036 102.469 51.7105 102.469 51.7105Z" fill="#D3766A"/>
<path id="Vector_122" d="M88.5323 52.4223C87.6553 52.7916 86.7648 53.1576 85.925 53.6048C85.0853 54.0521 84.2557 54.5231 83.4599 55.0449C82.4055 55.7042 81.4307 56.4831 80.5547 57.366C82.224 55.9123 85.2105 54.2757 86.0537 53.8285C86.8968 53.3812 87.7095 52.9 88.5492 52.4731C88.556 52.4709 88.5615 52.466 88.5647 52.4597C88.5679 52.4533 88.5684 52.446 88.5662 52.4392C88.5639 52.4325 88.5591 52.4269 88.5527 52.4237C88.5464 52.4205 88.539 52.42 88.5323 52.4223Z" fill="#310A31"/>
<path id="Vector_123" d="M90.1849 55.4338C89.0844 55.9522 87.9738 56.4266 86.897 56.9925C85.8203 57.5584 84.8654 58.1886 83.8292 58.8222C83.7513 58.8731 83.8021 58.9002 83.8834 58.8527C84.9399 58.2598 85.9591 57.7888 87.0223 57.206C88.0855 56.6232 89.1217 55.9997 90.1985 55.4575C90.2255 55.4508 90.2018 55.427 90.1849 55.4338Z" fill="#310A31"/>
<path id="Vector_124" d="M92.0741 57.7617C90.3693 58.5155 88.7467 59.4432 87.2321 60.5301C87.1542 60.5843 87.2321 60.608 87.3065 60.5606C88.898 59.6084 90.1407 58.8664 92.0979 57.8193C92.1283 57.8058 92.1114 57.7448 92.0741 57.7617Z" fill="#310A31"/>
<path id="Vector_125" d="M99.625 50.8535L108.51 65.1458C108.51 65.1458 120.023 64.502 122.173 61.9268C123.595 60.2326 116.667 51.1449 110.152 50.9043L99.625 50.8535Z" fill="#F79D30"/>
<path id="Vector_126" opacity="0.1" d="M99.625 50.8535L108.51 65.1458C108.51 65.1458 120.023 64.502 122.173 61.9268C123.595 60.2326 116.667 51.1449 110.152 50.9043L99.625 50.8535Z" fill="black"/>
<path id="Vector_127" d="M117.362 54.2583C116.471 53.3332 113.891 51.0867 110.129 50.8936C110.095 50.8936 110.085 50.9444 110.129 50.9478C112.919 51.3645 116.403 53.4823 117.341 54.2989C117.355 54.3192 117.385 54.282 117.362 54.2583Z" fill="#310A31"/>
<path id="Vector_128" d="M111.896 63.6208C111.006 61.9977 110.027 60.4221 109.049 58.8499C108.07 57.2777 107.088 55.7021 106.065 54.1536C105.49 53.2793 104.917 52.4017 104.311 51.5445C104.294 51.5241 104.254 51.5445 104.267 51.5682C105.155 53.1912 106.126 54.7702 107.095 56.3459C108.063 57.9215 109.055 59.4971 110.058 61.0557C110.626 61.9367 111.209 62.8109 111.815 63.6648C111.832 63.6919 111.896 63.6682 111.896 63.6208Z" fill="#310A31"/>
<path id="Vector_129" d="M99.6321 50.6901C100.348 50.606 101.068 50.5709 101.789 50.5851C102.51 50.5851 103.231 50.5851 103.953 50.5851C105.385 50.6088 108.429 50.497 111.003 50.9612C111.03 50.9612 110.86 51.0798 110.83 51.073C109.618 50.7884 100.523 50.9748 99.7912 50.8968C99.8132 50.9482 99.8302 51.0015 99.842 51.0561C99.842 51.0968 99.8082 51.134 99.7743 51.1035C99.7404 51.073 99.6456 50.9375 99.5711 50.8562C99.5605 50.8421 99.5536 50.8257 99.551 50.8082C99.5484 50.7908 99.5502 50.773 99.5562 50.7565C99.5623 50.7399 99.5724 50.7252 99.5857 50.7136C99.5989 50.702 99.6149 50.694 99.6321 50.6901Z" fill="#310A31"/>
<path id="Vector_130" d="M120.599 62.9697C120.131 63.1459 116.593 64.1794 108.49 65.101L108.531 65.118L107.796 64.1658L108.456 65.1824H108.51C117.853 64.5758 120.165 63.2239 120.599 62.9697Z" fill="#310A31"/>
<path id="Vector_131" d="M147.003 75.5986H47.5234V84.2323H147.003V75.5986Z" fill="#F79D30"/>
<path id="Vector_132" d="M87.9278 78.123C89.3215 76.7283 89.3215 74.467 87.9278 73.0723C86.534 71.6776 84.2743 71.6776 82.8806 73.0723C81.4868 74.467 81.4868 76.7283 82.8805 78.123C84.2743 79.5177 86.534 79.5177 87.9278 78.123Z" fill="#210721"/>
<path id="Vector_133" d="M85.407 77.5845C85.3854 77.5845 85.3647 77.5759 85.3495 77.5607C85.3342 77.5454 85.3257 77.5247 85.3257 77.5032V76.5677C85.3257 76.5461 85.3342 76.5254 85.3495 76.5102C85.3647 76.4949 85.3854 76.4863 85.407 76.4863C85.4285 76.4863 85.4492 76.4949 85.4645 76.5102C85.4797 76.5254 85.4883 76.5461 85.4883 76.5677V77.5201C85.4843 77.5386 85.4741 77.5552 85.4592 77.567C85.4444 77.5787 85.4259 77.5849 85.407 77.5845Z" fill="white"/>
<path id="Vector_134" d="M85.925 77.5847H84.8855C84.8639 77.5847 84.8432 77.5761 84.828 77.5608C84.8128 77.5456 84.8042 77.5249 84.8042 77.5033C84.8042 77.4817 84.8128 77.461 84.828 77.4457C84.8432 77.4305 84.8639 77.4219 84.8855 77.4219H85.925C85.9357 77.4219 85.9462 77.424 85.9561 77.4281C85.966 77.4322 85.9749 77.4382 85.9825 77.4457C85.99 77.4533 85.996 77.4623 86.0001 77.4721C86.0042 77.482 86.0063 77.4926 86.0063 77.5033C86.0063 77.514 86.0042 77.5246 86.0001 77.5344C85.996 77.5443 85.99 77.5533 85.9825 77.5608C85.9749 77.5684 85.966 77.5744 85.9561 77.5785C85.9462 77.5826 85.9357 77.5847 85.925 77.5847Z" fill="white"/>
<path id="Vector_135" d="M86.0738 74.2734V75.6558C86.0738 75.8356 86.0024 76.0079 85.8754 76.135C85.7484 76.2621 85.5762 76.3335 85.3966 76.3335C85.2721 76.3325 85.1503 76.2972 85.0445 76.2314C84.9388 76.1657 84.8532 76.072 84.7972 75.9608C84.7527 75.8689 84.7296 75.7681 84.7295 75.666V74.2835C84.7506 74.1235 84.828 73.9762 84.948 73.8682C85.0679 73.7602 85.2225 73.6986 85.3838 73.6946C85.5451 73.6905 85.7025 73.7441 85.8278 73.8459C85.953 73.9477 86.0379 74.0908 86.067 74.2496L86.0738 74.2734Z" fill="white"/>
<path id="Vector_136" d="M85.4034 76.6424C85.1457 76.6424 84.8985 76.5399 84.7163 76.3575C84.534 76.1752 84.4316 75.9278 84.4316 75.6699V75.0871C84.4316 75.0655 84.4402 75.0448 84.4554 75.0296C84.4707 75.0143 84.4914 75.0058 84.5129 75.0058C84.5345 75.0058 84.5551 75.0143 84.5704 75.0296C84.5856 75.0448 84.5942 75.0655 84.5942 75.0871V75.6699C84.5945 75.7794 84.6169 75.8878 84.6599 75.9885C84.703 76.0892 84.7658 76.1802 84.8447 76.2561C84.9233 76.3324 85.0169 76.3917 85.1194 76.4301C85.2219 76.4686 85.3313 76.4855 85.4407 76.4797C85.6521 76.4651 85.8499 76.3704 85.994 76.2149C86.138 76.0594 86.2175 75.8548 86.2161 75.6428V75.0871C86.2137 75.0753 86.2139 75.063 86.2167 75.0513C86.2196 75.0396 86.225 75.0286 86.2326 75.0192C86.2403 75.0099 86.2499 75.0023 86.2608 74.9971C86.2717 74.992 86.2836 74.9893 86.2957 74.9893C86.3077 74.9893 86.3197 74.992 86.3306 74.9971C86.3415 75.0023 86.3511 75.0099 86.3587 75.0192C86.3663 75.0286 86.3718 75.0396 86.3746 75.0513C86.3775 75.063 86.3777 75.0753 86.3752 75.0871V75.6428C86.3792 75.897 86.2849 76.1428 86.112 76.3291C85.9391 76.5153 85.7011 76.6276 85.4475 76.6424H85.4034Z" fill="white"/>
<path id="Vector_137" d="M109.116 79.1701C111.087 79.1701 112.685 77.5712 112.685 75.5987C112.685 73.6263 111.087 72.0273 109.116 72.0273C107.145 72.0273 105.547 73.6263 105.547 75.5987C105.547 77.5712 107.145 79.1701 109.116 79.1701Z" fill="#210721"/>
<path id="Vector_138" d="M111.195 75.1451V76.0531C111.196 76.0913 111.187 76.129 111.17 76.1634C111.154 76.1977 111.129 76.2278 111.099 76.2514C111.069 76.2749 111.034 76.2913 110.997 76.2992C110.96 76.3071 110.921 76.3064 110.884 76.2971L110.478 76.1921L110.271 76.1412V75.0603L110.813 74.9214L110.884 74.9011C110.921 74.8918 110.96 74.8911 110.997 74.899C111.034 74.9069 111.069 74.9233 111.099 74.9468C111.129 74.9704 111.154 75.0005 111.17 75.0348C111.187 75.0692 111.196 75.1069 111.195 75.1451Z" fill="white"/>
<path id="Vector_139" d="M109.601 74.4834H108.036C107.782 74.4834 107.576 74.6897 107.576 74.9442V76.2521C107.576 76.5067 107.782 76.713 108.036 76.713H109.601C109.855 76.713 110.061 76.5067 110.061 76.2521V74.9442C110.061 74.6897 109.855 74.4834 109.601 74.4834Z" fill="white"/>
<path id="Vector_140" d="M98.7007 81.6381C102.035 80.8438 104.095 77.4946 103.301 74.1577C102.508 70.8207 99.1607 68.7595 95.826 69.5539C92.4914 70.3482 90.4316 73.6973 91.2254 77.0343C92.0192 80.3713 95.366 82.4325 98.7007 81.6381Z" fill="white"/>
<path id="Vector_141" d="M97.2616 81.1147C100.306 81.1147 102.774 78.645 102.774 75.5984C102.774 72.5518 100.306 70.082 97.2616 70.082C94.2171 70.082 91.749 72.5518 91.749 75.5984C91.749 78.645 94.2171 81.1147 97.2616 81.1147Z" fill="#F79D30"/>
<path id="Vector_142" d="M100.383 75.6326C100.36 75.5438 100.33 75.4566 100.295 75.3717C100.251 75.2883 100.201 75.208 100.146 75.1311L99.9466 74.9278L99.696 74.7482C99.3658 74.5385 98.9977 74.3957 98.6125 74.328C97.7128 74.1485 96.7864 74.1485 95.8867 74.328C95.4964 74.3965 95.1236 74.5416 94.7896 74.755C94.7084 74.8092 94.6271 74.8702 94.5492 74.9278L94.3393 75.1379L94.2411 75.2802C94.1698 75.3882 94.1289 75.5134 94.1226 75.6427H94.153C94.7354 75.6427 95.3178 75.6427 95.9003 75.6427C95.9341 75.6427 95.9443 75.6224 95.9578 75.5987C96.0041 75.5016 96.0757 75.4189 96.1651 75.3592C96.2545 75.2996 96.3584 75.2652 96.4657 75.2598C96.9832 75.226 97.5024 75.226 98.0199 75.2598C98.1278 75.2646 98.2324 75.2987 98.3225 75.3584C98.4125 75.4181 98.4847 75.5011 98.5312 75.5987C98.5372 75.6114 98.5469 75.622 98.5589 75.6293C98.571 75.6365 98.5849 75.64 98.599 75.6393H100.383V75.6326Z" fill="white"/>
<path id="Vector_143" d="M94.133 75.9985C94.133 75.9985 94.133 76.0222 94.133 76.0392C94.133 76.2425 94.133 76.4424 94.133 76.6457C94.1291 76.6755 94.1321 76.7059 94.1418 76.7344C94.1515 76.7629 94.1676 76.7887 94.1889 76.81C94.2101 76.8313 94.236 76.8474 94.2645 76.8571C94.2929 76.8668 94.3233 76.8698 94.3531 76.8659H95.6669C95.6973 76.8705 95.7283 76.8679 95.7576 76.8583C95.7868 76.8487 95.8133 76.8323 95.835 76.8106C95.8568 76.7888 95.8731 76.7623 95.8827 76.733C95.8923 76.7038 95.895 76.6727 95.8904 76.6423V76.1239C95.8904 76.0798 95.8904 76.0358 95.8904 75.9951L94.133 75.9985Z" fill="white"/>
<path id="Vector_144" d="M100.384 75.9922H98.6432C98.6432 76.2124 98.6432 76.4361 98.6432 76.6699C98.6409 76.6985 98.6451 76.7272 98.6553 76.754C98.6656 76.7808 98.6817 76.805 98.7024 76.8248C98.7232 76.8446 98.7481 76.8595 98.7753 76.8684C98.8025 76.8774 98.8314 76.8802 98.8599 76.8766H100.187C100.216 76.8798 100.246 76.8764 100.274 76.8666C100.302 76.8569 100.327 76.841 100.348 76.8202C100.368 76.7994 100.384 76.7741 100.394 76.7464C100.404 76.7186 100.407 76.689 100.404 76.6597C100.404 76.453 100.404 76.2463 100.404 76.043L100.384 75.9922Z" fill="white"/>
</g>
<g id="Character 1">
<path id="Vector_145" d="M13.1209 153.779H84.276C100.807 140.788 102.513 121.837 90.7096 110.174C83.5717 103.119 78.3572 104.542 69.7159 103.421H69.6922C66.6853 103.028 63.7395 102.326 60.9392 100.849C52.0541 96.1561 47.0562 85.0929 39.5662 75.7748C38.6362 74.6092 37.661 73.4797 36.6406 72.3864C30.4915 65.8196 18.2576 65.6095 11.8579 74.8396C-4.38514 98.3009 -3.92802 133.225 13.1209 153.779Z" fill="#210721"/>
<path id="Vector_146" opacity="0.1" d="M58.5387 134.848C36.8474 140.185 17.005 128.004 15.2239 100.083C13.9169 79.6373 28.4499 69.9837 39.5868 75.7712C47.0632 85.0791 52.0712 96.1457 60.9563 100.845C63.76 102.323 66.7127 103.024 69.7093 103.417H69.7398L70.6574 103.529C80.5448 109.726 75.3844 130.711 58.5387 134.848Z" fill="black"/>
<path id="Vector_147" d="M136.015 153.054C134.732 153.305 102.124 147.897 100.895 146.874C100.759 146.762 101.694 140.097 101.88 136.004C101.88 135.807 87.8481 122.789 87.8481 122.789L106.113 111.79L123.07 137.976C123.07 137.976 134.214 146.589 135.45 147.853C136.686 149.117 137.292 152.807 136.015 153.054Z" fill="#AD6359"/>
<path id="Vector_148" d="M98.8022 133.564C100.617 134.957 101.884 135.936 101.88 136.004C101.694 140.07 100.759 146.762 100.895 146.877C102.127 147.893 134.732 153.315 136.015 153.054C137.299 152.793 136.676 149.127 135.45 147.853C134.224 146.579 123.07 137.976 123.07 137.976L119.918 133.106L98.8022 133.564Z" fill="#EBEBEB"/>
<path id="Vector_149" d="M136.876 152.597C135.646 152.79 101.999 147.294 100.865 146.271C100.431 145.891 101.88 136.065 101.88 136.004L123.721 138.152L123.65 138.515C123.65 138.515 135.409 146.386 136.534 147.64C137.658 148.893 138.105 152.407 136.876 152.597Z" fill="#F79D30"/>
<path id="Vector_150" d="M125.441 138.887C123.304 138.098 120.548 137.976 118.594 139.26C118.519 139.311 118.594 139.419 118.665 139.409C120.89 139.087 123.144 139.005 125.386 139.165C125.421 139.168 125.456 139.158 125.484 139.137C125.513 139.116 125.532 139.085 125.539 139.05C125.545 139.016 125.539 138.98 125.521 138.95C125.503 138.92 125.474 138.897 125.441 138.887Z" fill="#310A31"/>
<path id="Vector_151" d="M107.078 139.392C104.87 137.776 102.354 141.202 104.565 142.825C106.777 144.448 109.286 141.016 107.078 139.392Z" fill="white"/>
<path id="Vector_152" d="M121.97 133.114L99.554 140.192C99.554 140.192 83.3719 119.438 77.4056 114.586H77.3887C77.0543 114.304 76.6963 114.051 76.3187 113.831C75.7578 113.678 75.174 113.627 74.5952 113.682C67.674 113.946 45.1803 119.835 29.2217 121.349L35.0153 110.303L37.5819 105.404C55.0473 100.518 75.7092 89.7356 86.3415 93.0969C97.8948 96.7394 121.97 133.114 121.97 133.114Z" fill="#310A31"/>
<path id="Vector_153" d="M118.469 129.671C114.646 130.803 115.726 130.427 111.917 131.596C110.051 132.168 100.675 135.025 99.0226 135.848C99.0152 135.853 99.0096 135.86 99.0067 135.869C99.0038 135.877 99.0036 135.886 99.0063 135.894C99.009 135.903 99.0143 135.91 99.0216 135.915C99.0288 135.92 99.0375 135.923 99.0463 135.923C100.871 135.645 110.183 132.585 112.039 131.979C115.828 130.742 114.727 131.057 118.499 129.776C118.506 129.774 118.513 129.771 118.518 129.766C118.524 129.762 118.529 129.756 118.532 129.75C118.535 129.744 118.538 129.737 118.538 129.73C118.539 129.723 118.539 129.715 118.537 129.708C118.535 129.701 118.531 129.695 118.527 129.689C118.522 129.684 118.517 129.679 118.51 129.676C118.504 129.672 118.497 129.67 118.49 129.669C118.483 129.668 118.476 129.669 118.469 129.671Z" fill="#37474F"/>
<path id="Vector_154" d="M98.9274 135.526C95.6328 131.599 80.3615 112.038 77.8694 111.57C75.6041 111.147 32.8616 118.923 32.2284 119.025C32.181 119.025 32.1877 119.106 32.2284 119.096C37.3075 118.218 76.4709 111.784 77.6595 112.048C80.1313 112.594 98.2705 135.215 98.7006 135.679C98.8225 135.815 99.029 135.669 98.9274 135.526Z" fill="#37474F"/>
<path id="Vector_155" d="M21.1999 108.93C21.1999 108.93 20.0723 122.06 26.8377 128.454C34.9372 136.105 83.7611 132.757 91.8505 129.976C99.9398 127.194 99.9432 114.05 90.9972 111.18C82.4812 108.446 48.5763 107.876 47.6723 107.537C46.7682 107.199 44.0999 103.099 44.0999 103.099L21.1999 108.93Z" fill="#310A31"/>
<path id="Vector_156" d="M32.2998 108.355C32.2998 108.291 32.1914 108.314 32.1914 108.372C32.2257 110.073 31.6572 111.732 30.5864 113.055C29.3708 114.518 27.5389 115.359 25.9001 116.23C25.7409 116.314 25.8662 116.568 26.0321 116.511C27.0448 116.178 28.0189 115.737 28.9374 115.196C29.7816 114.723 30.5212 114.083 31.1112 113.316C31.6433 112.617 32.0239 111.815 32.2285 110.961C32.4332 110.107 32.4575 109.219 32.2998 108.355Z" fill="#37474F"/>
<path id="Vector_157" d="M47.3002 106.725C46.9209 106.257 46.5078 105.813 46.1117 105.369C45.1737 104.295 44.2324 103.218 43.2538 102.184C43.159 102.086 42.9863 102.228 43.071 102.337C43.7482 103.17 44.4254 103.977 45.1229 104.79C45.4615 105.207 45.8272 105.62 46.1861 106.034C46.5564 106.405 46.8887 106.813 47.1783 107.25C47.439 107.714 47.1173 108.121 46.6331 108.182C46.2025 108.2 45.7811 108.054 45.4548 107.772C44.6861 107.206 44.0732 106.386 43.4231 105.688C43.0303 105.261 42.6341 104.835 42.2346 104.411C41.8113 103.963 41.3576 103.54 40.9343 103.092C40.9072 103.062 40.8565 103.092 40.8802 103.136C41.2526 103.628 41.598 104.153 41.9705 104.634C42.3429 105.115 42.7222 105.613 43.1048 106.095C43.4874 106.576 43.8464 106.999 44.2324 107.45C44.5559 107.836 44.9402 108.167 45.3701 108.429C46.071 108.826 47.2832 108.89 47.6354 107.985C47.6975 107.764 47.6991 107.531 47.6401 107.309C47.5812 107.087 47.4637 106.886 47.3002 106.725Z" fill="#37474F"/>
<path id="Vector_158" d="M90.7335 130.047C87.9332 130.152 85.1363 130.365 82.3394 130.477C79.5425 130.589 76.7829 130.657 74.0063 130.684C68.426 130.735 66.4587 131.023 60.8852 130.738C55.2541 130.457 49.1761 130.009 43.5722 129.339C40.8938 129.017 38.1781 128.759 35.5234 128.241C33.1397 127.834 30.9223 126.752 29.1339 125.123C25.4498 121.677 23.9464 116.541 23.276 111.617C23.1845 110.956 23.1101 110.296 23.0423 109.632C23.0423 109.623 23.0388 109.614 23.0324 109.608C23.0261 109.601 23.0175 109.598 23.0085 109.598C22.9995 109.598 22.9909 109.601 22.9845 109.608C22.9782 109.614 22.9746 109.623 22.9746 109.632C23.3945 114.684 24.2783 119.942 27.5357 123.951C28.9114 125.7 30.7242 127.055 32.7909 127.878C35.3101 128.834 38.0935 129.017 40.7414 129.328C46.3657 129.986 52.4674 130.457 58.1188 130.792C63.7701 131.128 65.8864 130.901 71.5818 130.877C77.2772 130.853 82.976 130.667 88.6578 130.281C89.352 130.233 90.0427 130.179 90.7335 130.108C90.7741 130.104 90.7708 130.043 90.7335 130.047Z" fill="#37474F"/>
<path id="Vector_159" d="M97.9793 117.663C97.4042 115.476 96.0304 113.585 94.1293 112.363C92.0977 111.025 89.6665 110.442 87.2725 110.141C84.5637 109.802 81.8277 109.649 79.1087 109.436C73.5284 108.999 71.5577 108.999 65.9707 108.643C60.3836 108.287 48.363 107.579 47.6858 107.565C47.6249 107.565 47.6147 107.664 47.6858 107.67C53.0799 108.169 57.9829 108.589 63.3837 108.978C68.7845 109.368 70.6232 109.392 76.0477 109.825C78.7565 110.051 81.4586 110.277 84.1539 110.503C86.6596 110.713 89.2331 110.92 91.6033 111.859C93.635 112.648 95.4601 113.946 96.5233 115.884C97.5131 117.796 97.8372 119.984 97.4443 122.102C97.1089 124.068 96.2424 125.906 94.9386 127.415C93.6911 128.911 92.0057 129.978 90.1202 130.464C89.6292 130.583 89.0367 130.668 88.5829 130.769C88.5491 130.769 88.5152 130.851 88.5491 130.851C92.5819 130.874 96.2558 127.862 97.6441 124.148C98.4168 122.072 98.5339 119.808 97.9793 117.663Z" fill="#37474F"/>
<path id="Vector_160" d="M46.7109 69.7499C56.0768 78.1294 64.7181 87.329 65.2802 92.0863C66.0624 98.6734 62.9303 100.689 61.0849 100.737C56.0565 100.866 46.4434 80.813 43.4772 73.1993C40.6058 65.8058 44.6556 67.91 46.7109 69.7499Z" fill="#F79D30"/>
<g id="Group_3" opacity="0.6">
<path id="Vector_161" d="M46.7109 69.7499C56.0768 78.1294 64.7181 87.329 65.2802 92.0863C66.0624 98.6734 62.9303 100.689 61.0849 100.737C56.0565 100.866 46.4434 80.813 43.4772 73.1993C40.6058 65.8058 44.6556 67.91 46.7109 69.7499Z" fill="white"/>
</g>
<path id="Vector_162" opacity="0.1" d="M59.4357 100.195C54.1873 96.9459 46.1454 80.0445 43.4839 73.1999C42.6001 70.9296 42.3699 69.5539 42.5358 68.7949L59.4357 100.195Z" fill="black"/>
<path id="Vector_163" d="M20.4721 110.452C20.5669 110.541 54.702 106.22 55.0102 105.81C55.4233 105.234 47.1917 75.3146 44.344 69.7711C42.5054 66.1964 36.2885 66.1455 33.8675 69.395C24.4305 82.0474 20.1335 110.151 20.4721 110.452Z" fill="#F79D30"/>
<g id="Group_4" opacity="0.6">
<path id="Vector_164" d="M20.4721 110.452C20.5669 110.541 54.702 106.22 55.0102 105.81C55.4233 105.234 47.1917 75.3146 44.344 69.7711C42.5054 66.1964 36.2885 66.1455 33.8675 69.395C24.4305 82.0474 20.1335 110.151 20.4721 110.452Z" fill="white"/>
</g>
<path id="Vector_165" d="M58.4908 99.7104C55.6465 97.6774 56.8486 91.053 58.1183 80.183C58.3418 78.2753 70.9855 73.2198 71.3241 75.2461C71.727 77.801 70.0373 89.9416 68.9538 92.9201C66.824 98.7956 61.8126 102.086 58.4908 99.7104Z" fill="#AD6359"/>
<path id="Vector_166" d="M69.4179 85.6215C71.822 82.9311 74.9643 78.9328 74.9338 77.2827C74.8999 75.5546 74.541 69.4724 73.9992 68.0831C73.4574 66.6939 70.6673 63.1564 69.4179 62.7091C68.402 62.3703 67.911 63.5969 69.1199 65.8027C70.4743 68.2695 70.0985 69.286 70.1797 70.0857C70.261 70.8853 68.9573 74.4906 67.8095 74.8023C67.1322 74.9955 65.6999 75.0226 65.3478 73.7858C64.9956 72.549 65.2936 71.4139 64.762 69.2724C64.3455 67.5986 62.9166 66.5854 62.3443 66.9006C61.7721 67.2157 62.2766 68.2051 61.9549 70.7362C61.7551 72.3119 61.5486 73.447 59.7303 75.7884C58.1388 77.8384 58.1016 80.627 58.1016 80.627L69.4179 85.6215Z" fill="#AD6359"/>
<path id="Vector_167" d="M74.9541 73.4035C74.8661 72.4547 75.4417 69.5644 75.1912 68.3208C74.9406 67.0773 73.3593 62.4996 71.9473 62.1573C70.1764 61.727 70.7893 65.461 71.2024 67.0604C71.6155 68.6597 70.6538 71.5805 70.6538 71.5805L73.1053 72.5564L74.9541 73.4035Z" fill="#AD6359"/>
<path id="Vector_168" d="M70.3188 72.2472C70.6824 70.984 70.9495 69.6949 71.118 68.3912C71.1992 67.0833 70.7794 65.8025 70.7252 64.481C70.7049 63.8236 70.6541 63.0951 70.9927 62.4954C71.0493 62.3961 71.1284 62.3116 71.2237 62.2486C71.319 62.1856 71.4278 62.146 71.5412 62.1328C71.4378 62.162 71.3421 62.2136 71.2608 62.2838C71.1795 62.3541 71.1145 62.4413 71.0706 62.5394C70.6371 63.9727 71.2432 65.589 71.3922 67.063C71.6699 68.8419 70.9622 70.6208 70.3188 72.2472Z" fill="#263238"/>
<path id="Vector_169" d="M74.893 74.23C75.0691 73.3016 76.4167 70.7162 76.5217 69.4523C76.6267 68.1885 76.3896 63.3735 75.1436 62.6382C73.5758 61.7132 73.1119 65.4506 73.078 67.094C73.0442 68.7374 71.3071 71.2414 71.3071 71.2414L73.3659 72.8814L74.893 74.23Z" fill="#AD6359"/>
<path id="Vector_170" d="M70.803 71.7831C71.4952 70.6814 72.102 69.5282 72.618 68.3337C73.0514 67.1104 72.9938 65.772 73.3223 64.5048C73.4848 63.8711 73.6338 63.1494 74.1248 62.6886C74.2066 62.6105 74.3056 62.5526 74.4138 62.5197C74.522 62.4867 74.6364 62.4796 74.7478 62.4988C74.6411 62.4967 74.5353 62.5184 74.4381 62.5624C74.3409 62.6063 74.2547 62.6714 74.1857 62.7529C73.7896 63.2612 73.6914 63.9321 73.5762 64.5556C73.4408 65.4095 73.3629 66.2769 73.2376 67.1477C73.0141 68.9165 71.8493 70.4175 70.7827 71.7831H70.803Z" fill="#263238"/>
<path id="Vector_171" d="M71.1853 73.999C70.0984 75.0155 68.5272 75.4255 67.0814 75.5509C65.6297 75.6472 64.2287 76.1227 63.0181 76.93C64.1336 75.9232 65.5581 75.3257 67.0577 75.2358C68.4968 75.0969 69.9629 74.7953 71.1955 74.016L71.1853 73.999Z" fill="#263238"/>
<path id="Vector_172" d="M74.592 78.4384C74.9645 77.5947 76.2241 74.2741 76.2647 72.8781C76.3053 71.482 75.767 66.1859 74.3347 65.4235C72.5333 64.4612 72.2488 68.5951 72.303 70.4079C72.3572 72.2207 70.7759 74.1792 70.7759 74.1792L73.4204 76.4122L74.592 78.4384Z" fill="#AD6359"/>
<path id="Vector_173" d="M72.4551 67.5577C72.4991 68.1541 72.4822 68.7708 72.4551 69.3671C72.4705 69.9387 72.4433 70.5107 72.3739 71.0783C72.2642 71.6314 72.0615 72.1619 71.7745 72.6471C71.6391 72.8911 71.4901 73.1215 71.3343 73.3519C71.1786 73.5823 70.9686 73.8364 70.8027 74.0872C70.7858 74.1143 70.7418 74.0872 70.7587 74.0635C71.0407 73.5877 71.2918 73.0942 71.5104 72.5861C71.7496 72.0645 71.9215 71.5146 72.0217 70.9495C72.2215 69.828 72.1741 68.6725 72.3603 67.5611C72.384 67.5035 72.4517 67.5171 72.4551 67.5577Z" fill="#310A31"/>
<path id="Vector_174" d="M72.3874 71.0791C72.2926 69.6187 72.1369 68.0058 72.489 66.5725C72.6312 65.8033 73.2983 64.797 74.2024 65.2171C74.9304 65.6034 75.2182 66.4336 75.4789 67.1451C75.7801 68.1041 75.971 69.0942 76.0478 70.0964C75.8473 69.1234 75.5757 68.1664 75.2351 67.2332C74.9609 66.5996 74.6866 65.8541 74.0669 65.5187C72.2147 65.0003 72.533 69.9609 72.3739 71.0859L72.3874 71.0791Z" fill="#263238"/>
<path id="Vector_175" d="M71.4904 83.9717L56.7305 86.2317C56.7305 86.2317 54.8309 98.6401 59.2768 100.223C63.7227 101.805 67.2544 97.9591 68.9542 92.9205C69.9536 89.9834 70.8001 86.9965 71.4904 83.9717Z" fill="#F79D30"/>
<path id="Vector_176" opacity="0.6" d="M71.4904 83.9717L56.7305 86.2317C56.7305 86.2317 54.8309 98.6401 59.2768 100.223C63.7227 101.805 67.2544 97.9591 68.9542 92.9205C69.9536 89.9834 70.8001 86.9965 71.4904 83.9717Z" fill="white"/>
<path id="Vector_177" d="M56.4528 94.5266C56.2672 92.4501 56.2389 90.3625 56.3681 88.2817C56.3978 87.5831 56.5045 86.8899 56.6864 86.2148V86.1877H56.7101C56.9675 86.1369 57.2214 86.086 57.4788 86.042C57.2316 86.1233 56.981 86.1979 56.7304 86.2724C56.4426 88.8103 56.5578 91.8294 56.4426 94.53L56.4528 94.5266Z" fill="#263238"/>
<path id="Vector_178" d="M57.7766 89.6402C59.8354 89.2065 65.4596 88.2103 69.2047 88.0781C69.2284 88.0781 69.2419 88.1696 69.2216 88.173C66.1301 88.7897 59.8895 89.5284 57.7969 89.7757C57.7597 89.7825 57.736 89.647 57.7766 89.6402Z" fill="#310A31"/>
<path id="Vector_179" d="M28.9811 96.0237C29.1945 94.7971 33.0444 79.512 34.0603 74.7004C34.9948 70.3802 34.0129 68.7809 30.9044 71.7796C25.1786 77.2994 14.4921 93.3503 13.1207 101.123C11.8002 108.612 17.8613 108.442 22.314 104.512C25.9811 101.276 28.9811 96.0237 28.9811 96.0237Z" fill="#F79D30"/>
<g id="Group_5" opacity="0.6">
<path id="Vector_180" d="M28.9811 96.0237C29.1945 94.7971 33.0444 79.512 34.0603 74.7004C34.9948 70.3802 34.0129 68.7809 30.9044 71.7796C25.1786 77.2994 14.4921 93.3503 13.1207 101.123C11.8002 108.612 17.8613 108.442 22.314 104.512C25.9811 101.276 28.9811 96.0237 28.9811 96.0237Z" fill="white"/>
</g>
<path id="Vector_181" d="M28.4937 97.9996C29.6686 92.4189 31.1416 86.3197 32.6416 80.8203C31.4666 86.401 29.9937 92.4968 28.4937 97.9996Z" fill="#263238"/>
<path id="Vector_182" d="M31.897 84.1575C32.0963 83.4001 32.4414 82.6888 32.9128 82.0635C32.759 82.837 32.4092 83.5581 31.897 84.1575Z" fill="#263238"/>
<path id="Vector_183" d="M16.0702 106.131C18.8163 108.097 23.9563 106.836 37.1891 104.878C39.021 104.607 40.5752 91.1579 38.6181 91.3477C36.1361 91.5849 26.5535 93.0419 25.8661 93.2418C20.059 94.8886 14.1943 104.8 16.0702 106.131Z" fill="#AD6359"/>
<path id="Vector_184" d="M36.6574 92.1984C36.6574 92.1984 41.3133 89.7756 44.1542 89.2606C47.9568 88.5829 51.5223 89.5418 52.9919 90.0399C56.0597 91.0768 62.7641 95.7088 61.7686 97.874C60.8645 99.8325 54.2515 94.7532 54.2515 94.7532C54.2515 94.7532 61.8499 98.8193 60.3464 100.981C58.843 103.143 51.4851 96.8032 51.4851 96.8032C51.4851 96.8032 59.1986 101.157 57.2787 103.136C55.826 104.634 48.8575 99.27 48.8575 99.27C48.8575 99.27 55.4569 103.058 54.0314 104.661C52.4569 106.43 45.7118 101.882 45.7118 101.882C41.4047 105.345 37.9238 105.23 35.4824 104.854C34.8696 104.766 36.6574 92.1984 36.6574 92.1984Z" fill="#AD6359"/>
<path id="Vector_185" d="M51.7157 93.1709C52.6265 93.6148 53.5475 94.062 54.4245 94.5873C55.3015 95.1125 56.1413 95.6648 56.9573 96.2815C58.0353 97.0503 59.0225 97.9392 59.8998 98.9312C58.2068 97.2844 55.1593 95.3564 54.2722 94.8312C53.385 94.306 52.5791 93.7402 51.7055 93.2149C51.6717 93.198 51.6954 93.1709 51.7157 93.1709Z" fill="#310A31"/>
<path id="Vector_186" d="M49.7649 96.2747C50.9027 96.8948 52.0539 97.4674 53.151 98.1383C54.2481 98.8092 55.247 99.531 56.3035 100.273C56.3847 100.331 56.3272 100.354 56.2425 100.3C55.159 99.6021 54.1025 99.043 53.0088 98.3552C51.9151 97.6673 50.8485 96.9422 49.7379 96.3018C49.7311 96.2916 49.748 96.2645 49.7649 96.2747Z" fill="#310A31"/>
<path id="Vector_187" d="M47.6115 98.6328C49.3777 99.5395 51.0458 100.626 52.5891 101.876C52.667 101.937 52.5891 101.96 52.5078 101.906C50.8723 100.795 49.5992 99.9136 47.5811 98.6938C47.5607 98.6769 47.5607 98.6159 47.6115 98.6328Z" fill="#310A31"/>
<path id="Vector_188" d="M35.9566 90.2744L30.0005 108.978C30.0005 108.978 16.5205 108.829 14.4042 106.471C12.8906 104.777 19.2429 95.2554 25.602 93.2223L35.9566 90.2744Z" fill="#F79D30"/>
<path id="Vector_189" opacity="0.6" d="M35.9566 90.2744L30.0005 108.978C30.0005 108.978 16.5205 108.829 14.4042 106.471C12.8906 104.777 19.2429 95.2554 25.602 93.2223L35.9566 90.2744Z" fill="white"/>
<path id="Vector_190" d="M18.9585 98.2809C19.5849 97.1186 21.9484 94.4384 25.6054 93.1982C25.6392 93.1982 25.6629 93.2355 25.6325 93.2525C22.9947 94.4282 19.7 97.2372 19.0025 98.3012C18.9986 98.3044 18.9939 98.3063 18.9889 98.307C18.9839 98.3076 18.9788 98.3068 18.9742 98.3047C18.9696 98.3025 18.9658 98.2992 18.963 98.295C18.9602 98.2908 18.9586 98.2859 18.9585 98.2809Z" fill="#310A31"/>
<path id="Vector_191" d="M27.3797 106.247C27.8132 104.401 28.3414 102.578 28.8764 100.755C29.4114 98.9318 29.9464 97.1122 30.5254 95.3028C30.864 94.2863 31.1755 93.2698 31.5412 92.2533C31.5412 92.2262 31.5954 92.2533 31.5886 92.2533C31.1586 94.0966 30.6372 95.9263 30.1123 97.7459C29.5875 99.5655 29.0491 101.392 28.487 103.208C28.171 104.236 27.8324 105.252 27.4712 106.258C27.4542 106.319 27.3696 106.302 27.3797 106.247Z" fill="#310A31"/>
<path id="Vector_192" d="M35.9059 90.1218C35.1766 90.2376 34.456 90.4029 33.749 90.6165C33.0345 90.8062 32.3269 91.0129 31.6192 91.223C30.2106 91.6432 27.18 92.3717 24.7691 93.5373C24.742 93.5373 24.9418 93.6152 24.9689 93.6017C26.0863 92.985 35.1102 90.6605 35.8044 90.3827C35.801 90.4402 35.801 90.4979 35.8044 90.5555C35.8044 90.5962 35.8619 90.6233 35.8856 90.5826C35.9432 90.4843 35.9669 90.3827 36.0177 90.2844C36.0284 90.2666 36.0338 90.246 36.0331 90.2252C36.0325 90.2044 36.0259 90.1843 36.0141 90.1671C36.0023 90.15 35.9859 90.1366 35.9667 90.1285C35.9475 90.1205 35.9264 90.1181 35.9059 90.1218Z" fill="#310A31"/>
<path id="Vector_193" d="M31.0704 105.807C30.7453 106.898 30.4067 107.984 30.0546 109.066C28.9812 109.043 27.9078 108.988 26.8378 108.927C23.6921 108.724 20.5194 108.504 17.4414 107.792C20.4381 108.27 23.8106 108.47 26.8513 108.69L29.997 108.89L29.9123 108.951C30.2848 107.896 30.6686 106.848 31.0636 105.807H31.0704Z" fill="#263238"/>
<path id="Vector_194" d="M41.2285 76.4318C41.2285 76.4318 34.9203 71.2374 31.1583 71.688L28.2057 74.8054C28.2057 74.8054 27.1898 75.2391 26.8004 74.6021C25.8557 73.0231 25.3546 69.0519 28.5578 66.1717C31.4902 63.5321 36.6404 63.2678 41.022 64.0268C45.2275 64.7587 49.0335 67.1848 48.0007 69.9769C46.968 72.769 41.2285 76.4318 41.2285 76.4318Z" fill="#F79D30"/>
<path id="Vector_195" opacity="0.6" d="M41.2285 76.4318C41.2285 76.4318 34.9203 71.2374 31.1583 71.688L28.2057 74.8054C28.2057 74.8054 27.1898 75.2391 26.8004 74.6021C25.8557 73.0231 25.3546 69.0519 28.5578 66.1717C31.4902 63.5321 36.6404 63.2678 41.022 64.0268C45.2275 64.7587 49.0335 67.1848 48.0007 69.9769C46.968 72.769 41.2285 76.4318 41.2285 76.4318Z" fill="white"/>
<path id="Vector_196" opacity="0.1" d="M41.5299 75.1348C41.5299 75.1348 45.9623 71.3567 46.2704 69.3135C46.5786 67.2703 42.4205 65.7048 39.7726 65.1796C35.6754 64.363 32.9733 64.8408 30.9179 67.1856C28.8626 69.5304 41.5299 75.1348 41.5299 75.1348Z" fill="black"/>
<path id="Vector_197" d="M48.2381 60.4085C48.695 60.2263 49.0903 59.9173 49.3775 59.5178C49.6648 59.1184 49.8319 58.6451 49.8593 58.1537C49.8867 57.6624 49.7732 57.1734 49.5322 56.7444C49.2912 56.3154 48.9326 55.9643 48.4989 55.7325C49.4402 55.2479 50.1174 54.3331 49.9109 53.1945C49.8016 52.649 49.4961 52.1625 49.0525 51.8272C48.6088 51.4918 48.0576 51.3309 47.5033 51.375C48.5496 51.4563 49.535 52.1204 49.7212 53.2081C49.788 53.6166 49.7319 54.0357 49.5601 54.4121C49.3882 54.7886 49.1084 55.1055 48.7562 55.3225C48.9873 55.006 49.1511 54.6455 49.2373 54.2631C49.3235 53.8808 49.3303 53.4848 49.2573 53.0997C49.1621 52.6745 48.9436 52.2869 48.6292 51.9855C48.3148 51.6841 47.9184 51.4823 47.4898 51.4055C47.6659 50.4228 47.5101 49.308 46.7923 48.5626C46.4989 48.2485 46.1203 48.0267 45.703 47.9244C45.2857 47.8221 44.8476 47.8437 44.4423 47.9866C44.4443 47.5022 44.3042 47.0279 44.0392 46.6225C43.7743 46.2171 43.3962 45.8985 42.952 45.7062C42.5077 45.5138 42.0168 45.4563 41.5402 45.5406C41.0635 45.6249 40.6221 45.8474 40.2707 46.1805C40.2356 45.8343 40.1142 45.5023 39.9175 45.2153C39.7208 44.9282 39.4552 44.6952 39.1451 44.5377C38.8349 44.3801 38.4902 44.3031 38.1426 44.3137C37.7949 44.3242 37.4555 44.4221 37.1555 44.5981C37.0775 44.342 36.9281 44.1134 36.7247 43.9393C36.5214 43.7653 36.2726 43.6529 36.0076 43.6155C35.7008 43.5869 35.3914 43.6195 35.0973 43.7114C34.8032 43.8033 34.5303 43.9527 34.2942 44.1509C34.0858 43.9645 33.8341 43.8334 33.562 43.7695C33.2899 43.7055 33.0061 43.7108 32.7366 43.7849C32.3937 43.8923 32.1 44.1183 31.9083 44.4225C31.7167 44.7267 31.6394 45.0892 31.6903 45.4452C30.6745 45.4452 29.6079 45.5808 28.8393 46.2686C28.5135 46.5435 28.2756 46.9081 28.1552 47.3172C28.0348 47.7262 28.0372 48.1617 28.162 48.5694C27.7398 48.6231 27.3339 48.7662 26.9713 48.9892C26.6087 49.2122 26.2977 49.5099 26.059 49.8625C25.8204 50.2152 25.6595 50.6146 25.5872 51.0343C25.5148 51.454 25.5326 51.8843 25.6394 52.2966C25.3028 52.4503 25.0126 52.69 24.7981 52.9916C24.5835 53.2932 24.4521 53.646 24.417 54.0145C24.3458 54.5193 24.4005 55.0338 24.5762 55.5122C24.286 55.6725 24.0537 55.9201 23.912 56.2199C23.7704 56.5198 23.7268 56.8566 23.7872 57.1827C23.8513 57.4863 23.982 57.7718 24.17 58.0186C24.358 58.2653 24.5986 58.4671 24.8742 58.6092C24.9568 58.7685 25.0008 58.9449 25.0028 59.1243C25.0124 59.5773 25.1336 60.0209 25.3557 60.4158C25.5778 60.8107 25.8939 61.1445 26.276 61.3877C26.2067 61.6445 26.1928 61.9131 26.2352 62.1757C26.2777 62.4383 26.3755 62.6888 26.5222 62.9106C26.6689 63.1324 26.8611 63.3204 27.0861 63.4621C27.311 63.6039 27.5635 63.696 27.8268 63.7325C27.8463 64.288 28.0842 64.8132 28.4888 65.194C28.8934 65.5748 29.4319 65.7802 29.9871 65.7656C30.0396 66.1996 30.1846 66.6172 30.4125 66.9902C30.6403 67.3632 30.9456 67.6828 31.3077 67.9274C31.8766 68.3069 32.6621 68.4831 33.2547 68.0798C33.3665 68.6084 33.9929 68.8524 34.5076 68.7575C34.7026 68.7229 34.8934 68.6672 35.0764 68.5915C35.2967 68.4635 35.5372 68.3741 35.7875 68.3272C36.0381 68.3272 36.2548 68.5068 36.4647 68.5983C36.6204 68.6658 36.7827 68.7169 36.9489 68.7507C37.5705 68.8597 38.2107 68.7541 38.7644 68.4512C39.3181 68.1483 39.7525 67.6661 39.9964 67.0836C40.8328 67.4428 41.7335 67.0193 42.3667 66.4263C42.5673 66.2297 42.7498 66.0154 42.9118 65.7859C43.044 65.5712 43.2408 65.4039 43.4739 65.3081C43.6297 65.2505 43.7956 65.2302 43.9547 65.1726C44.1925 65.0618 44.4051 64.9038 44.5798 64.708C44.7545 64.5123 44.8874 64.283 44.9706 64.0341C47.2765 64.9185 49.0169 62.5025 48.2381 60.4085ZM24.048 57.4368C23.936 57.11 23.9283 56.7563 24.026 56.4249C24.1237 56.0935 24.3218 55.8006 24.5931 55.5868C24.6134 55.6342 24.6304 55.6647 24.6304 55.6647C24.6304 55.6647 24.4983 55.8545 24.4441 55.9527C24.2981 56.2346 24.2152 56.5448 24.2011 56.862C24.1871 57.1792 24.2423 57.4956 24.3629 57.7892C24.4394 57.9633 24.5372 58.1272 24.6541 58.2772C24.6688 58.2967 24.6823 58.3171 24.6947 58.3382C24.4033 58.1017 24.182 57.79 24.0547 57.4368H24.048ZM33.1565 44.1746C32.8321 44.2282 32.5319 44.3801 32.2964 44.6097C32.0609 44.8393 31.9014 45.1357 31.8393 45.4588H31.7852C31.8055 44.7811 32.0154 44.1509 32.7807 43.9306C33.0163 43.8634 33.2654 43.8593 33.5032 43.9188C33.7409 43.9783 33.9588 44.0992 34.1351 44.2695C33.8268 44.1457 33.4896 44.1128 33.1633 44.1746H33.1565ZM45.0417 63.9494V63.9257C45.7908 64.0016 46.5401 63.7821 47.1301 63.3138C47.72 62.8456 48.1042 62.1655 48.2009 61.4182C48.1196 63.0853 47.0699 64.4678 45.0484 63.9494H45.0417Z" fill="#310A31"/>
<path id="Vector_198" d="M41.5402 74.3283C39.7727 74.4503 35.5672 71.909 34.7681 69.2728C34.7139 69.0932 35.3099 67.4295 35.9431 65.3761C36.3189 64.1258 36.7117 62.7264 36.9589 61.4252C37.0131 61.1575 44.7164 65.0746 44.7164 65.0746C44.7164 65.0746 43.362 67.6396 42.9116 69.9132C42.8758 70.0928 42.8577 70.2756 42.8574 70.4587C42.8606 70.4892 42.8606 70.5198 42.8574 70.5502C42.8202 71.5972 43.4331 74.1962 41.5402 74.3283Z" fill="#AD6359"/>
<path id="Vector_199" d="M42.864 70.4686C42.864 70.4957 42.864 70.5262 42.864 70.5601C42.5801 70.5391 42.2982 70.496 42.0209 70.4313C37.2364 69.347 37.1957 63.0717 37.2601 61.4961C38.6687 62.001 44.7298 65.0844 44.7298 65.0844C44.7298 65.0844 43.3753 67.6528 42.9216 69.9265C42.8863 70.1051 42.867 70.2865 42.864 70.4686Z" fill="#310A31"/>
<path id="Vector_200" d="M43.4973 56.7492C44.3032 58.606 46.2807 59.5344 47.8992 58.8263C49.5178 58.1181 50.1916 56.0342 49.3823 54.1774C48.5731 52.3205 46.599 51.3887 44.9804 52.1003C43.3619 52.8118 42.6881 54.8822 43.4973 56.7492Z" fill="#210721"/>
<path id="Vector_201" d="M42.5934 57.2805C43.4907 59.3475 45.6883 60.3809 47.4998 59.5914C49.3114 58.8019 50.0529 56.4876 49.1522 54.4207C48.2515 52.3538 46.054 51.3203 44.2424 52.1098C42.4309 52.8993 41.6927 55.2204 42.5934 57.2805Z" fill="#C7C7C7"/>
<path id="Vector_202" d="M33.0446 54.6275C33.0141 57.7177 36.9149 65.4704 39.4782 66.7038C43.1792 68.4895 48.0348 67.3374 49.2504 63.1595C50.4288 59.1137 45.1634 49.101 42.4241 48.1048C38.3811 46.6342 33.092 50.0633 33.0446 54.6275Z" fill="#AD6359"/>
<path id="Vector_203" d="M42.6579 57.2197C42.6579 57.1994 42.6308 57.2638 42.641 57.2841C42.9186 57.7992 43.1489 58.4362 42.7629 58.8462C42.7611 58.8475 42.7596 58.8492 42.7584 58.8511C42.7573 58.853 42.7566 58.8551 42.7562 58.8573C42.7556 58.8618 42.7568 58.8663 42.7595 58.8699C42.7622 58.8735 42.7662 58.8759 42.7706 58.8765C42.7751 58.8771 42.7796 58.876 42.7832 58.8733C43.3182 58.504 43.0033 57.6636 42.6579 57.2197Z" fill="#310A31"/>
<path id="Vector_204" d="M41.9194 56.9146C41.0458 57.2704 41.8212 58.9917 42.6304 58.663C43.4397 58.3343 42.6508 56.6063 41.9194 56.9146Z" fill="#310A31"/>
<path id="Vector_205" d="M45.5933 55.8984C45.5933 55.8747 45.6474 55.8984 45.6542 55.9255C45.8777 56.4677 46.2265 57.0471 46.7852 57.0098C46.8055 57.0098 46.8156 57.0335 46.7852 57.0403C46.1689 57.2063 45.7185 56.427 45.5933 55.8984Z" fill="#310A31"/>
<path id="Vector_206" d="M45.8204 55.1089C46.6467 54.6583 47.4864 56.3491 46.7211 56.7659C45.9559 57.1826 45.1263 55.4884 45.8204 55.1089Z" fill="#310A31"/>
<path id="Vector_207" d="M40.887 56.4236C41.0904 56.2604 41.2838 56.085 41.466 55.8984C41.69 55.7384 41.8544 55.5083 41.9333 55.2444C41.9425 55.1567 41.9221 55.0684 41.8755 54.9935C41.8289 54.9187 41.7587 54.8615 41.6759 54.831C41.5037 54.7968 41.3254 54.8078 41.1587 54.863C40.9919 54.9182 40.8423 55.0158 40.7245 55.1462C40.4491 55.3797 40.2694 55.7066 40.2199 56.0644C40.2175 56.1431 40.237 56.2209 40.2763 56.2891C40.3156 56.3573 40.3732 56.4132 40.4424 56.4505C40.5117 56.4878 40.59 56.505 40.6685 56.5003C40.7471 56.4955 40.8227 56.469 40.887 56.4236Z" fill="#310A31"/>
<path id="Vector_208" d="M46.0946 53.943C45.8431 53.9991 45.5888 54.042 45.3327 54.0718C45.0713 54.1598 44.7883 54.1598 44.5269 54.0718C44.4522 54.0253 44.3945 53.9561 44.3622 53.8744C44.3299 53.7926 44.3247 53.7026 44.3474 53.6177C44.4208 53.4573 44.5359 53.3196 44.6806 53.2189C44.8253 53.1182 44.9944 53.0581 45.1702 53.0451C45.5212 52.9601 45.8912 53.0109 46.2064 53.1874C46.2725 53.2321 46.3246 53.2946 46.3568 53.3676C46.389 53.4407 46.3998 53.5214 46.3882 53.6004C46.3765 53.6794 46.3427 53.7534 46.2908 53.8141C46.2388 53.8747 46.1708 53.9194 46.0946 53.943Z" fill="#310A31"/>
<path id="Vector_209" d="M44.2019 62.3539C44.3804 62.4557 44.5881 62.4939 44.7911 62.4623C44.988 62.3698 45.1633 62.2371 45.3058 62.0726C45.3088 62.0699 45.3126 62.0681 45.3167 62.0676C45.3207 62.067 45.3249 62.0677 45.3285 62.0695C45.3322 62.0714 45.3352 62.0743 45.3372 62.0778C45.3392 62.0814 45.34 62.0855 45.3397 62.0896C45.31 62.2281 45.2438 62.3562 45.148 62.4605C45.0521 62.5648 44.93 62.6415 44.7945 62.6826C44.673 62.7036 44.548 62.6882 44.4352 62.6381C44.3225 62.5881 44.2272 62.5056 44.1613 62.4013C44.1583 62.3953 44.1572 62.3886 44.158 62.382C44.1588 62.3754 44.1615 62.3691 44.1659 62.3641C44.1702 62.359 44.1759 62.3553 44.1824 62.3535C44.1888 62.3517 44.1956 62.3518 44.2019 62.3539Z" fill="#310A31"/>
<path id="Vector_210" d="M44.0461 60.5036C44.2763 60.6536 44.5349 60.7545 44.8058 60.7999C45.0767 60.8454 45.3541 60.8345 45.6206 60.7679C45.858 60.7133 46.0862 60.6243 46.2978 60.5036C46.34 60.4847 46.3798 60.4608 46.4163 60.4324L46.5247 60.3613C46.5514 60.344 46.5713 60.318 46.5811 60.2878C46.591 60.2576 46.5902 60.2249 46.5789 60.1952C46.5725 60.177 46.5634 60.1598 46.5518 60.1444L46.5315 60.097C46.3588 59.6836 46.0371 59.0804 46.0371 59.0804C46.22 59.0804 47.1376 59.0804 47.0292 58.8771C46.1251 57.149 45.1195 55.2278 43.8565 53.6996C43.8483 53.6887 43.8364 53.6812 43.8229 53.6787C43.8095 53.6761 43.7957 53.6788 43.7841 53.6861C43.7726 53.6933 43.7642 53.7047 43.7606 53.7179C43.7571 53.7311 43.7587 53.7452 43.765 53.7572C44.5675 55.4514 45.6646 56.9966 46.4976 58.684C46.1694 58.6793 45.8421 58.7215 45.5258 58.8094C45.475 58.8534 46.1658 59.9716 46.2301 60.1647C46.2315 60.1714 46.2315 60.1783 46.2301 60.1851C45.58 60.5849 44.9671 60.6086 44.0901 60.446C44.019 60.4222 43.9953 60.4765 44.0461 60.5036Z" fill="#310A31"/>
<path id="Vector_211" d="M37.1043 60.7881C37.1043 60.7881 34.4327 58.7381 33.4474 59.7716C32.462 60.8051 35.049 64.1765 36.6133 64.2613C36.8125 64.2857 37.0145 64.2697 37.2074 64.2142C37.4002 64.1587 37.5799 64.065 37.7357 63.9384C37.8915 63.8119 38.0203 63.6553 38.1143 63.4779C38.2082 63.3005 38.2655 63.1059 38.2827 62.9059L37.1043 60.7881Z" fill="#AD6359"/>
<path id="Vector_212" d="M34.2127 60.7202C34.2073 60.7202 34.2021 60.7223 34.1983 60.7261C34.1945 60.7299 34.1924 60.7351 34.1924 60.7405C34.1924 60.7459 34.1945 60.7511 34.1983 60.7549C34.2021 60.7587 34.2073 60.7608 34.2127 60.7608C35.3199 60.8489 36.1258 61.5944 36.7861 62.4279C36.3798 62.1569 35.9193 62.0891 35.5434 62.5838C35.5231 62.6109 35.5434 62.6414 35.5841 62.6279C35.7399 62.5188 35.9255 62.4603 36.1157 62.4603C36.3058 62.4603 36.4914 62.5188 36.6473 62.6279C36.905 62.8146 37.1422 63.0281 37.355 63.2649C37.4295 63.336 37.5751 63.2412 37.5074 63.1497V63.1293C37.1247 61.8688 35.5976 60.422 34.2127 60.7202Z" fill="#310A31"/>
<path id="Vector_213" d="M45.5289 50.6938C45.0345 50.0703 44.6485 50.0364 44.6485 50.0364C44.3451 49.3625 43.8536 48.7906 43.2331 48.3896C42.0514 47.5425 41.1405 47.695 41.1405 47.695C41.1405 47.695 40.1247 47.1359 38.391 47.4036C37.739 47.5329 37.1138 47.7724 36.5422 48.1118C36.2036 48.4168 35.6856 48.3558 35.2623 48.4947C34.8659 48.6236 34.5013 48.8349 34.1923 49.1148C33.9303 49.3493 33.7084 49.6252 33.5354 49.9314C33.4392 50.1181 33.3544 50.3104 33.2814 50.5074C33.1651 50.789 32.9624 51.0264 32.7024 51.1851C32.4134 51.4009 32.1735 51.6755 31.9984 51.9909C31.8233 52.3063 31.717 52.6553 31.6866 53.0148C31.6435 53.4665 31.6942 53.9222 31.8356 54.3533C32.0015 54.8954 31.5274 55.3427 31.497 55.878C31.4636 56.2961 31.5545 56.7147 31.7581 57.0812C31.9617 57.4477 32.2691 57.7459 32.6415 57.9382C32.1166 58.6837 32.2487 59.8967 32.9293 60.6489C33.1763 60.8968 33.4784 61.0828 33.8108 61.1917C34.1433 61.3006 34.4967 61.3294 34.8424 61.2758C34.9663 61.2681 35.089 61.2465 35.2081 61.2114C36.5321 60.981 37.2872 59.1784 36.312 57.823C36.9237 57.367 37.3753 56.7288 37.6021 56C37.8032 55.1755 37.7331 54.308 37.4023 53.5265C37.8675 53.6205 38.3488 53.5963 38.8023 53.4562C39.2558 53.3162 39.667 53.0647 39.9983 52.7247C40.3296 52.3847 40.5706 51.967 40.6991 51.5099C40.8277 51.0527 40.8397 50.5706 40.7342 50.1076C41.3539 50.4464 42.9284 50.8225 43.4431 50.4295C44.337 52.1542 45.7625 52.4117 46.0741 52.2931C46.0853 51.7125 45.8923 51.1465 45.5289 50.6938ZM36.251 60.2355C36.4813 59.7307 36.5693 59.1004 36.3018 57.9179C36.5153 58.2687 36.624 58.6734 36.615 59.0841C36.606 59.4948 36.4797 59.8944 36.251 60.2355ZM39.2782 52.9572C39.7098 52.6396 40.0584 52.2224 40.2943 51.741C40.5301 51.2596 40.6462 50.7283 40.6326 50.1923C40.7239 50.737 40.6423 51.2966 40.3994 51.7925C40.1564 52.2885 39.7643 52.6958 39.2782 52.9572Z" fill="#310A31"/>
<path id="Vector_214" d="M34.2806 59.7848C34.2806 59.7848 32.0695 55.9458 32.161 53.1842C32.2592 50.1109 36.3868 47.1664 38.9094 47.3866C38.9094 47.3866 34.9375 47.8407 33.8303 52.5878C33.3596 54.587 35.6757 59.2427 35.6757 59.2427L34.2806 59.7848Z" fill="#C7C7C7"/>
<path id="Vector_215" d="M38.9836 59.9647C39.9994 61.9978 39.3831 64.3324 37.6291 65.2202C35.8752 66.1079 33.6133 65.1965 32.6008 63.1871C31.5884 61.1778 32.1979 58.8195 33.9552 57.9317C35.7126 57.0439 37.9711 57.9554 38.9836 59.9647Z" fill="#C7C7C7"/>
<path id="Vector_216" d="M37.9953 60.3235C38.9028 62.1329 38.3542 64.2473 36.7695 65.0469C35.1849 65.8466 33.1566 65.0266 32.2491 63.2138C31.3416 61.401 31.8868 59.29 33.4749 58.4904C35.063 57.6907 37.0844 58.5141 37.9953 60.3235Z" fill="#210721"/>
<path id="Vector_217" d="M36.4474 61.1441C37.0061 62.2555 36.6675 63.5566 35.6923 64.0479C34.7171 64.5392 33.4744 64.0479 32.9157 62.9196C32.357 61.7912 32.6922 60.5104 33.6674 60.0191C34.6426 59.5278 35.8887 60.0327 36.4474 61.1441Z" fill="#37474F"/>
<path id="Vector_218" d="M41.5299 75.1342C41.5299 75.1342 36.1867 67.6322 30.2949 67.3408L31.1584 71.6814C31.1584 71.6814 34.6359 71.39 41.2286 76.4252L41.5299 75.1342Z" fill="#F79D30"/>
<path id="Vector_219" opacity="0.6" d="M41.5299 75.1342C41.5299 75.1342 36.1867 67.6322 30.2949 67.3408L31.1584 71.6814C31.1584 71.6814 34.6359 71.39 41.2286 76.4252L41.5299 75.1342Z" fill="white"/>
<path id="Vector_220" d="M29.6147 71.9055C30.6677 71.729 31.7462 71.781 32.7773 72.058C33.808 72.3046 34.8068 72.6696 35.7537 73.1457C36.7083 73.6109 37.6313 74.1383 38.5168 74.7247L39.8238 75.6429L41.0868 76.6222L41.229 76.7306L41.3712 76.6425C42.4125 75.991 43.407 75.2675 44.3476 74.4773C44.8254 74.0913 45.2779 73.6748 45.702 73.2304C46.1331 72.793 46.5198 72.314 46.8567 71.8005C46.0462 72.706 45.1377 73.5185 44.1478 74.2232C43.6602 74.5858 43.1591 74.9246 42.6545 75.2397C42.15 75.5548 41.6387 75.9174 41.1207 76.2054L41.4017 76.2257L40.1319 75.2092C39.6951 74.8704 39.2515 74.5756 38.8046 74.2672C38.3576 73.9589 37.8836 73.6912 37.4095 73.4269C36.9343 73.162 36.4461 72.9212 35.9467 72.7052C34.9552 72.2516 33.9093 71.9282 32.8349 71.7429C32.5674 71.692 32.2931 71.6683 32.0256 71.6378C31.7581 71.6073 31.4805 71.6107 31.2096 71.6378C30.6667 71.636 30.1274 71.7265 29.6147 71.9055Z" fill="#310A31"/>
<path id="Vector_221" d="M28.2061 74.8097C28.7626 74.3559 29.2876 73.8646 29.7772 73.3392C30.2757 72.8233 30.7373 72.273 31.1587 71.6924C30.0507 72.6067 29.0591 73.6536 28.2061 74.8097Z" fill="#310A31"/>
<path id="Vector_222" d="M38.6147 74.2234C38.5944 76.0821 38.7348 77.9391 39.0346 79.7736C39.2344 81.0544 40.5346 85.5339 41.9229 85.1307C43.3112 84.7275 40.4805 82.1658 39.6441 79.8244C38.8077 77.483 39.143 75.5991 38.9669 74.1387L38.6147 74.2234Z" fill="#F79D30"/>
<g id="Group_6" opacity="0.1">
<path id="Vector_223" d="M38.6147 74.2234C38.5944 76.0821 38.7348 77.9391 39.0346 79.7736C39.2344 81.0544 40.5346 85.5339 41.9229 85.1307C43.3112 84.7275 40.4805 82.1658 39.6441 79.8244C38.8077 77.483 39.143 75.5991 38.9669 74.1387L38.6147 74.2234Z" fill="black"/>
</g>
<path id="Vector_224" d="M43.6869 73.583C44.4534 75.2486 45.1205 76.9582 45.6847 78.7029C46.0436 79.8245 46.8156 83.9956 45.5187 84.2226C44.2219 84.4496 45.4883 81.234 45.2106 78.9943C44.933 76.7546 43.8189 74.9113 43.3618 73.6576L43.6869 73.583Z" fill="#F79D30"/>
<g id="Group_7" opacity="0.1">
<path id="Vector_225" d="M43.6869 73.583C44.4534 75.2486 45.1205 76.9582 45.6847 78.7029C46.0436 79.8245 46.8156 83.9956 45.5187 84.2226C44.2219 84.4496 45.4883 81.234 45.2106 78.9943C44.933 76.7546 43.8189 74.9113 43.3618 73.6576L43.6869 73.583Z" fill="black"/>
</g>
<path id="Vector_226" d="M74.0196 108.832H41.002V110.411H74.0196V108.832Z" fill="#DBDBDB"/>
<path id="Vector_227" d="M74.0196 108.832V110.411H54.79L55.9989 108.832H74.0196Z" fill="#A6A6A6"/>
<path id="Vector_228" d="M60.9731 110.411H89.5889L94.0552 88.627H65.436L60.9731 110.411Z" fill="#A6A6A6"/>
<path id="Vector_229" d="M62.4155 110.411H91.0313L95.4976 88.627H66.8784L62.4155 110.411Z" fill="#DBDBDB"/>
<path id="Vector_230" d="M80.6527 99.5211C80.5037 100.538 79.7859 101.358 79.0443 101.358C78.3028 101.358 77.8219 100.534 77.9709 99.5211C78.1199 98.5079 78.8378 97.6846 79.5759 97.6846C80.3141 97.6846 80.7983 98.5079 80.6527 99.5211Z" fill="white"/>
</g>
<g id="Speech Bubble">
<path id="Vector_231" d="M107.627 0.145508V12.5539H109.367V15.5662L112.378 12.5539H128.885V0.145508H107.627Z" fill="white"/>
<path id="Vector_232" d="M107.627 0.145701L107.728 12.5575L107.627 12.4558H109.367H109.476V12.5676V15.5765L109.262 15.4884L112.256 12.4626C112.306 12.4118 112.293 12.4219 112.357 12.4219L128.868 12.4016L128.702 12.5676L128.722 0.155867L128.868 0.301569C123.568 0.281238 112.909 0.203304 107.61 0.155867L107.627 0.145701ZM107.627 0.145701C112.997 0.101652 123.657 0.0203305 129.027 0V0.145701L129.051 12.5575V12.7235H128.885C128.919 12.6659 111.998 12.7913 112.476 12.6591L109.455 15.6545L109.239 15.8713V15.5765V12.5676L109.35 12.6761H107.61H107.508V12.5778L107.61 0.166032L107.627 0.145701Z" fill="#263238"/>
<path id="Vector_233" d="M122.275 6.34953C122.275 6.55058 122.334 6.74712 122.446 6.91428C122.558 7.08145 122.716 7.21174 122.902 7.28868C123.088 7.36562 123.292 7.38575 123.489 7.34652C123.686 7.3073 123.867 7.21049 124.009 7.06832C124.151 6.92616 124.248 6.74503 124.287 6.54785C124.326 6.35066 124.306 6.14627 124.229 5.96052C124.152 5.77478 124.022 5.61602 123.855 5.50432C123.688 5.39263 123.492 5.33301 123.291 5.33301C123.021 5.33301 122.763 5.4401 122.572 5.63074C122.382 5.82138 122.275 6.07993 122.275 6.34953Z" fill="#310A31"/>
<path id="Vector_234" d="M117.247 6.34953C117.247 6.55058 117.306 6.74712 117.418 6.91428C117.529 7.08145 117.688 7.21174 117.874 7.28868C118.059 7.36562 118.264 7.38575 118.461 7.34652C118.658 7.3073 118.839 7.21049 118.981 7.06832C119.123 6.92616 119.22 6.74503 119.259 6.54785C119.298 6.35066 119.278 6.14627 119.201 5.96052C119.124 5.77478 118.994 5.61602 118.827 5.50432C118.66 5.39263 118.463 5.33301 118.262 5.33301C117.993 5.33301 117.735 5.4401 117.544 5.63074C117.354 5.82138 117.247 6.07993 117.247 6.34953Z" fill="#310A31"/>
<path id="Vector_235" d="M112.235 6.34953C112.235 6.55058 112.295 6.74712 112.407 6.91428C112.518 7.08145 112.677 7.21174 112.862 7.28868C113.048 7.36562 113.252 7.38575 113.449 7.34652C113.646 7.3073 113.827 7.21049 113.969 7.06832C114.112 6.92616 114.208 6.74503 114.247 6.54785C114.287 6.35066 114.267 6.14627 114.19 5.96052C114.113 5.77478 113.983 5.61602 113.816 5.50432C113.648 5.39263 113.452 5.33301 113.251 5.33301C112.982 5.33301 112.723 5.4401 112.533 5.63074C112.342 5.82138 112.235 6.07993 112.235 6.34953Z" fill="#310A31"/>
</g>
</g>
<defs>
<clipPath id="clip0_357_126">
<rect width="147" height="154" fill="white"/>
</clipPath>
</defs>
</svg>
