<svg width="24" height="24" viewBox="0 0 24 24" fill="none" xmlns="http://www.w3.org/2000/svg">
<g clip-path="url(#clip0_494_399)">
<path d="M4 0C2.93913 0 1.92172 0.421427 1.17157 1.17157C0.421427 1.92172 0 2.93913 0 4L0 7.2C0 16.4784 7.5216 24 16.8 24H20C21.0609 24 22.0783 23.5786 22.8284 22.8284C23.5786 22.0783 24 21.0609 24 20V17.7888C24 17.3429 23.8757 16.9057 23.6412 16.5265C23.4066 16.1472 23.071 15.8408 22.672 15.6416L18.808 13.7088C18.5004 13.555 18.1633 13.4691 17.8195 13.457C17.4758 13.4448 17.1335 13.5067 16.8158 13.6384C16.4981 13.7701 16.2124 13.9686 15.978 14.2203C15.7437 14.4721 15.5662 14.7713 15.4576 15.0976L14.9808 16.5264C14.8931 16.7886 14.7127 17.0098 14.4735 17.1485C14.2343 17.2873 13.9528 17.334 13.6816 17.28C11.9639 16.9364 10.3862 16.0922 9.14741 14.8536C7.90859 13.6151 7.06399 12.0377 6.72 10.32C6.66598 10.0488 6.71272 9.76727 6.85146 9.52809C6.99019 9.28891 7.21139 9.10855 7.4736 9.0208L9.248 8.4288C9.82143 8.23732 10.3015 7.83647 10.5922 7.3064C10.8829 6.77632 10.9628 6.15606 10.816 5.5696L9.8784 1.8192C9.74891 1.30003 9.44964 0.839018 9.02814 0.509411C8.60664 0.179803 8.08708 0.000504591 7.552 0L4 0Z" fill="#765C76"/>
</g>
<defs>
<clipPath id="clip0_494_399">
<rect width="24" height="24" fill="white"/>
</clipPath>
</defs>
</svg>
