<svg width="161" height="40" viewBox="0 0 161 40" fill="none" xmlns="http://www.w3.org/2000/svg">
<g opacity="0.9">
<path opacity="0.99" d="M20.5409 7C18.6034 7 17.0327 8.57068 17.0327 10.5082V19.8634C17.0327 21.801 18.6034 23.3716 20.5409 23.3716C22.4785 23.3716 24.0491 21.801 24.0491 19.8634V10.5082C24.0491 8.57068 22.4785 7 20.5409 7Z" fill="#0562EF"/>
<path d="M23.0297 25.6619L31.012 20.828C32.7574 19.7709 35.0292 20.329 36.0863 22.0745C37.1433 23.8199 36.5852 26.0917 34.8398 27.1488L26.8575 31.9827C25.1121 33.0397 22.8403 32.4816 21.7832 30.7362C20.7262 28.9908 21.2843 26.7189 23.0297 25.6619Z" fill="#0562EF"/>
<path d="M17.1538 25.5771L10.06 21.2812C8.29664 20.2133 6.00153 20.7771 4.93368 22.5404C3.86583 24.3038 4.42962 26.5989 6.19295 27.6667L13.2868 31.9627C15.0501 33.0305 17.3452 32.4667 18.413 30.7034C19.4809 28.9401 18.9171 26.6449 17.1538 25.5771Z" fill="#0562EF"/>
</g>
<path opacity="0.99" d="M57.258 19.0314C57.0607 19.0314 56.8757 18.9574 56.703 18.8094C56.555 18.6367 56.481 18.4394 56.481 18.2174C56.481 17.6501 56.7277 17.1197 57.221 16.6264C57.369 16.5524 57.665 16.4291 58.109 16.2564C58.553 16.0837 58.9477 15.9974 59.293 15.9974C60.2303 15.9974 60.995 16.2564 61.587 16.7744C62.179 17.2677 62.475 17.9831 62.475 18.9204C62.475 19.1917 62.4257 19.7714 62.327 20.6594C62.2283 21.6954 62.179 22.4971 62.179 23.0644C62.179 24.7911 62.4133 26.1847 62.882 27.2454C63.0547 27.5907 63.326 27.8621 63.696 28.0594C64.066 28.2567 64.399 28.3554 64.695 28.3554C65.4103 28.3554 65.99 28.2321 66.434 27.9854C66.878 27.7387 67.359 27.3441 67.877 26.8014C68.395 26.2587 68.728 25.6421 68.876 24.9514C69.0487 24.2607 69.172 23.3111 69.246 22.1024C69.2953 21.3131 69.3447 20.7334 69.394 20.3634C69.5173 19.1794 69.579 18.1681 69.579 17.3294C69.579 16.7867 69.727 16.3427 70.023 15.9974C70.319 15.6274 70.726 15.4424 71.244 15.4424C71.54 15.4424 71.873 15.5411 72.243 15.7384C72.6377 15.9111 72.8967 16.1207 73.02 16.3674C73.168 16.6141 73.242 17.0211 73.242 17.5884C73.242 17.8844 73.205 18.1681 73.131 18.4394C72.9583 19.0561 72.872 19.7961 72.872 20.6594L72.909 22.5834C72.909 24.3347 73.0323 25.6297 73.279 26.4684C73.4023 26.8631 73.575 27.2701 73.797 27.6894C74.019 28.0841 74.2287 28.4171 74.426 28.6884C74.9193 29.2311 75.24 29.6134 75.388 29.8354C75.536 30.0327 75.61 30.2301 75.61 30.4274C75.61 30.7234 75.462 31.0071 75.166 31.2784C74.8947 31.5251 74.5987 31.6484 74.278 31.6484C73.3653 31.6484 72.576 31.3401 71.91 30.7234C71.244 30.1067 70.7507 29.3051 70.43 28.3184C69.5913 29.2804 68.8143 30.0574 68.099 30.6494C67.6057 30.9947 67.0013 31.2537 66.286 31.4264C65.5707 31.5744 64.8553 31.6484 64.14 31.6484C63.178 31.6484 62.2037 31.2537 61.217 30.4644C60.2303 29.6751 59.5643 28.7624 59.219 27.7264C59.1943 27.6771 59.1203 27.4797 58.997 27.1344C58.8983 26.7891 58.849 26.2711 58.849 25.5804C58.849 24.6677 58.8983 23.5207 58.997 22.1394C59.071 21.2514 59.108 20.4374 59.108 19.6974C59.108 19.4754 59.0217 19.2904 58.849 19.1424C58.701 18.9944 58.5283 18.9204 58.331 18.9204C58.183 18.9204 58.0103 18.9451 57.813 18.9944C57.6403 19.0191 57.4553 19.0314 57.258 19.0314ZM91.5472 19.1424C91.5472 20.2277 90.9922 20.7704 89.8822 20.7704C89.5122 20.7704 89.2038 20.6841 88.9572 20.5114C88.7105 20.3387 88.4392 20.0797 88.1432 19.7344C87.4032 18.9204 86.7618 18.5134 86.2192 18.5134C85.5038 18.5134 84.8008 18.7231 84.1102 19.1424C83.4442 19.5617 82.9015 20.1537 82.4822 20.9184C82.0628 21.6831 81.8532 22.5341 81.8532 23.4714C81.8532 24.5074 82.0505 25.3707 82.4452 26.0614C82.8645 26.7521 83.5058 27.3441 84.3692 27.8374C84.6898 28.0101 85.0598 28.1457 85.4792 28.2444C85.9232 28.3431 86.3055 28.3924 86.6262 28.3924C87.3415 28.3924 88.2418 28.1087 89.3272 27.5414C89.7218 27.3441 90.0548 27.1961 90.3262 27.0974C90.5975 26.9987 90.8812 26.9494 91.1772 26.9494C91.4485 26.9494 91.7568 27.0727 92.1022 27.3194C92.4475 27.5661 92.6202 27.8744 92.6202 28.2444C92.6202 28.9844 92.2748 29.6134 91.5842 30.1314C90.8935 30.6247 90.0425 31.0071 89.0312 31.2784C88.0445 31.5251 87.0948 31.6484 86.1822 31.6484C84.7268 31.6484 83.3702 31.3154 82.1122 30.6494C80.8788 29.9834 79.8922 29.0707 79.1522 27.9114C78.4122 26.7274 78.0422 25.3954 78.0422 23.9154C78.0422 22.3367 78.3998 20.8937 79.1152 19.5864C79.8305 18.2791 80.7925 17.2554 82.0012 16.5154C83.2098 15.7754 84.5295 15.4054 85.9602 15.4054C86.7742 15.4054 87.6128 15.5534 88.4762 15.8494C89.3395 16.1454 90.0672 16.5771 90.6592 17.1444C91.2512 17.7117 91.5472 18.3777 91.5472 19.1424ZM119.162 31.6114C117.312 31.6114 116.067 30.8961 115.425 29.4654C115.105 28.7501 114.895 27.8251 114.796 26.6904C114.698 25.5311 114.648 24.1744 114.648 22.6204V21.4734C114.648 19.6974 114.056 18.8094 112.872 18.8094C112.182 18.8094 111.491 19.1671 110.8 19.8824C110.11 20.5731 109.53 21.4981 109.061 22.6574C108.617 23.7921 108.395 24.9761 108.395 26.2094C108.395 27.0234 108.432 27.7634 108.506 28.4294C108.556 29.2681 108.58 29.9094 108.58 30.3534C108.58 31.1921 108.001 31.6114 106.841 31.6114C106.274 31.6114 105.768 31.4881 105.324 31.2414C104.905 30.9947 104.695 30.6741 104.695 30.2794C104.794 29.0214 104.843 27.4674 104.843 25.6174L104.806 20.7334C104.806 19.9441 104.745 17.0211 104.621 11.9644L104.51 8.56039C104.51 8.01772 104.757 7.54906 105.25 7.15439C105.744 6.73506 106.299 6.52539 106.915 6.52539C107.458 6.52539 107.853 6.64872 108.099 6.89539C108.346 7.14206 108.469 7.52439 108.469 8.04239C108.469 8.68372 108.457 9.43606 108.432 10.2994C108.408 11.1381 108.383 11.7794 108.358 12.2234C108.284 13.4814 108.247 14.7394 108.247 15.9974C108.247 17.2307 108.223 18.2051 108.173 18.9204C108.913 17.8351 109.752 17.0334 110.689 16.5154C111.651 15.9727 112.774 15.7014 114.056 15.7014C114.994 15.7014 115.857 16.1207 116.646 16.9594C117.46 17.7734 117.954 18.7107 118.126 19.7714C118.176 20.3141 118.2 21.1157 118.2 22.1764L118.163 24.8774C118.163 25.2967 118.188 25.9504 118.237 26.8384C118.262 27.2577 118.398 27.7017 118.644 28.1704C118.916 28.6391 119.224 28.9844 119.569 29.2064C119.89 29.4037 120.1 29.6011 120.198 29.7984C120.297 29.9957 120.346 30.2177 120.346 30.4644C120.346 30.7111 120.235 30.9701 120.013 31.2414C119.791 31.4881 119.508 31.6114 119.162 31.6114ZM124.555 15.4424C126.183 15.4424 126.997 16.5154 126.997 18.6614C126.997 18.9327 126.972 19.5371 126.923 20.4744C126.874 21.5597 126.849 22.4107 126.849 23.0274C126.849 24.7541 127.083 26.1477 127.552 27.2084C127.725 27.5537 128.033 27.8251 128.477 28.0224C128.946 28.2197 129.34 28.3184 129.661 28.3184C130.154 28.3184 130.561 28.2567 130.882 28.1334C131.203 28.0101 131.499 27.8251 131.77 27.5784C132.066 27.3317 132.35 27.0604 132.621 26.7644C133.09 26.2464 133.386 25.6544 133.509 24.9884C133.657 24.2977 133.743 23.3851 133.768 22.2504C133.768 21.5351 133.805 20.8444 133.879 20.1784C134.027 19.0931 134.101 18.0817 134.101 17.1444C134.101 16.6264 134.237 16.1947 134.508 15.8494C134.804 15.4794 135.223 15.2944 135.766 15.2944C136.037 15.2944 136.358 15.3931 136.728 15.5904C137.123 15.7631 137.382 15.9604 137.505 16.1824C137.678 16.4784 137.764 16.8854 137.764 17.4034C137.764 17.7241 137.727 18.0201 137.653 18.2914C137.53 18.6614 137.468 19.1301 137.468 19.6974C137.468 19.9934 137.493 20.4867 137.542 21.1774C137.616 21.6954 137.653 22.2257 137.653 22.7684C137.653 24.4211 137.776 25.6421 138.023 26.4314C138.294 27.2701 138.664 28.0101 139.133 28.6514C139.626 29.1694 139.959 29.5517 140.132 29.7984C140.305 30.0204 140.391 30.2177 140.391 30.3904C140.391 30.6864 140.243 30.9701 139.947 31.2414C139.651 31.5127 139.343 31.6484 139.022 31.6484C138.109 31.6484 137.308 31.3401 136.617 30.7234C135.951 30.0821 135.458 29.2681 135.137 28.2814C134.866 28.6021 134.508 28.9967 134.064 29.4654C133.62 29.9341 133.201 30.3164 132.806 30.6124C131.844 31.3031 130.611 31.6484 129.106 31.6484C128.489 31.6484 127.811 31.4634 127.071 31.0934C126.356 30.7234 125.702 30.2424 125.11 29.6504C124.518 29.0337 124.111 28.3801 123.889 27.6894C123.864 27.6401 123.79 27.4427 123.667 27.0974C123.568 26.7521 123.519 26.2341 123.519 25.5434L123.482 19.6234C123.482 19.2781 123.396 18.7354 123.223 17.9954C123.075 17.5021 123.001 17.1321 123.001 16.8854C123.001 16.4661 123.137 16.1207 123.408 15.8494C123.704 15.5781 124.086 15.4424 124.555 15.4424ZM143.902 18.7724C143.902 16.5524 143.865 14.7887 143.791 13.4814C143.742 12.7414 143.693 12.1864 143.643 11.8164C143.52 9.89239 143.458 8.69606 143.458 8.22739C143.458 7.09272 144.026 6.52539 145.16 6.52539C145.876 6.52539 146.357 6.71039 146.603 7.08039C146.875 7.45039 147.06 8.05472 147.158 8.89339C147.405 10.5954 147.528 12.5934 147.528 14.8874C147.528 15.9234 147.491 16.9594 147.417 17.9954C147.861 17.3047 148.564 16.7374 149.526 16.2934C150.513 15.8494 151.413 15.6274 152.227 15.6274C153.337 15.6274 154.262 15.8617 155.002 16.3304C155.767 16.7744 156.519 17.4281 157.259 18.2914C157.679 18.9081 158.049 19.6481 158.369 20.5114C158.715 21.3501 158.887 22.0777 158.887 22.6944C158.887 23.7551 158.715 24.8774 158.369 26.0614C158.049 27.2207 157.617 28.1211 157.074 28.7624C156.384 29.6011 155.594 30.2301 154.706 30.6494C153.843 31.0687 152.807 31.2784 151.598 31.2784C149.724 31.2784 148.244 30.5137 147.158 28.9844C147.035 29.6011 146.764 30.2177 146.344 30.8344C145.925 31.4264 145.444 31.7224 144.901 31.7224C144.457 31.7224 144.087 31.6114 143.791 31.3894C143.495 31.1427 143.347 30.7851 143.347 30.3164C143.347 30.1437 143.397 29.7121 143.495 29.0214C143.742 27.5414 143.865 26.1477 143.865 24.8404L143.902 18.7724ZM151.006 28.2074C151.574 28.2074 152.079 28.1334 152.523 27.9854C152.967 27.8127 153.461 27.5414 154.003 27.1714C154.423 26.9247 154.731 26.4561 154.928 25.7654C155.15 25.0747 155.261 24.3101 155.261 23.4714C155.261 22.1887 154.904 21.0417 154.188 20.0304C153.917 19.7344 153.559 19.4877 153.115 19.2904C152.671 19.0931 152.227 18.9944 151.783 18.9944C150.723 18.9944 149.798 19.2904 149.008 19.8824C148.244 20.4744 147.812 21.3007 147.713 22.3614C147.713 22.6821 147.701 22.9411 147.676 23.1384L147.602 26.0614C147.898 26.6287 148.379 27.1344 149.045 27.5784C149.711 27.9977 150.365 28.2074 151.006 28.2074Z" fill="#0562EF"/>
</svg>
